<svg version="1.1" id="Layer_1" xmlns="http://www.w3.org/2000/svg" x="0" y="0" viewBox="0 0 250 250" style="enable-background:new 0 0 250 250" xml:space="preserve"><style>.st0{fill:#FFF}</style><switch><g><path class="st0" d="m130.96 154.74-1.82.3h-.13c-.14.03-.27.03-.41.07l-.47.07c-23.81 3.9-43.95 4.41-61.53 1.58-4.73-.78-11.7-2.09-17.65-4.64-7.03-3.02-11.04-7.12-11.88-12.2-2.12-12.41 16.27-22.36 22.33-25.63 16.07-8.71 35.88-14.96 60.53-19.14 24.65-4.17 45.43-4.81 63.45-1.88 11.77 1.91 27.64 5.72 29.54 16.83s-11.83 19.94-22.33 25.63c-15.68 8.48-34.84 14.63-58.61 18.8l-.47.07c-.13.04-.27.04-.4.07-.08.07-.12.07-.15.07zm-2.06-.68h.07l1.85-.33h.03c.13-.04.27-.04.4-.07l.47-.07c23.64-4.14 42.71-10.26 58.31-18.7 23.81-12.88 22.29-21.69 21.83-24.58-1.95-11.7-22.06-14.97-28.65-16.01-17.92-2.89-38.57-2.29-63.12 1.89-24.55 4.17-44.22 10.39-60.23 19.03-23.81 12.88-22.29 21.69-21.82 24.58 1.98 11.7 22.09 14.93 28.7 16 17.49 2.83 37.53 2.32 61.24-1.58l.47-.07c.13-.03.27-.03.4-.07l.05-.02z"/><path class="st0" d="M129.16 149.99c-.47.07-.98.17-1.51.23-1.01.17-2.15.34-3.4.54l-.13.04c-.54.07-1.11.17-1.72.23-.54.07-1.11.17-1.71.24h-.11c-.91.13-1.88.23-2.86.37h-.13l-1.25.13c-.34.04-.71.07-1.04.14h-.05c-7.63.84-14.9 1.35-21.55 1.45-12.11.17-21.83-.94-28.82-3.29-6.7-2.25-10.97-5.68-12.64-10.19-.29-.77-.5-1.57-.64-2.39-.59-3.53.27-7.03 2.59-10.35 3.23-4.64 9.35-9.08 18.19-13.15 8.28-3.85 18.76-7.3 31.14-10.32 7.83-1.92 14.12-3.06 17.19-3.55 3.06-.49 9.48-1.51 17.42-2.32 8.74-.89 21.52-1.68 32.85-.57 9.72.94 16.98 3.13 21.56 6.52 3.2 2.39 5.15 5.35 5.72 8.87.14.85.2 1.7.17 2.56-.14 4.81-2.99 9.41-8.48 13.69-5.83 4.53-14.64 8.8-26.18 12.63-6.39 2.12-13.42 4.04-20.92 5.75-.25.07-.51.13-.77.17l-2.59.56c-.67.13-1.31.27-1.95.4l-.64.14-1.07.2c-.37.07-.78.17-1.18.24l-.64.13c-1.25.24-2.39.44-3.4.64-.46.09-.97.19-1.45.26zm-11.63.67h.17c.94-.1 1.88-.23 2.79-.37h.1c.57-.07 1.15-.17 1.72-.23.57-.07 1.18-.17 1.72-.24l.13-.03c1.25-.2 2.37-.37 3.36-.51 1.08-.17 1.92-.3 2.99-.5 1.01-.17 2.15-.41 3.4-.64l.64-.14c.37-.07.77-.13 1.14-.23l1.04-.2.64-.13c.64-.13 1.28-.27 1.95-.4l2.59-.57c.27-.07.51-.1.78-.17 7.49-1.68 14.47-3.63 20.83-5.72 11.43-3.8 20.14-8 25.86-12.48 5.25-4.09 7.97-8.43 8.11-12.94.03-.79-.03-1.59-.17-2.37-.54-3.25-2.37-6.02-5.35-8.24-4.44-3.25-11.5-5.41-21.05-6.32-11.27-1.08-23.98-.3-32.65.57-7.93.78-14.29 1.78-17.35 2.29-3.06.51-9.35 1.68-17.12 3.57-12.13 2.96-22.87 6.49-30.97 10.26-8.68 4.01-14.65 8.32-17.79 12.82-2.15 3.09-2.96 6.35-2.42 9.62.13.76.32 1.5.59 2.22 1.58 4.24 5.62 7.47 12.04 9.62 6.89 2.32 16.48 3.4 28.48 3.23 6.66-.1 13.89-.57 21.49-1.44h.06c.35-.03.7-.07 1.04-.14l1.21-.19z"/><path class="st0" d="m89.88 140.1-.1-.03h-.09l.09.94c.3-.03.57-.03.89-.06.79-.06 1.58-.07 2.37-.04-1.07-.2-2.12-.47-3.16-.81zm9.34 2.5h.18-.18zm1.65-.88.11-.02-.11.02zm.38-.06h-.03v.06h.07l-.04-.06zm96.98-29.03c-.57-3.53-2.52-6.49-5.72-8.88-4.57-3.4-11.83-5.58-21.56-6.53-11.33-1.11-24.11-.3-32.84.57-7.94.8-14.33 1.78-17.42 2.32-3.09.54-9.36 1.65-17.2 3.56-12.37 3.03-22.87 6.49-31.14 10.32-8.85 4.07-14.96 8.51-18.19 13.15-2.32 3.33-3.19 6.83-2.59 10.35.1.61.25 1.21.44 1.8.07.2.13.39.2.59.05.12.09.25.14.37 1.78 4.32 5.99 7.63 12.5 9.82 7 2.37 16.71 3.46 28.82 3.3h.2l.13-.17c1.75-1.85 3.62-3.76 5.5-5.38.04-.04.08-.07.12-.1l1.04-.91h-1.6c-8.98.09-16.21-.72-21.51-2.44h-.05l.06-.02c4.65-1.87 8.5-2.91 12.04-3.3h.02c2.59.81 5.78 1.33 9.49 1.54-2.19-.12-4.36-.39-6.51-.8-.39-.08-.77-.17-1.14-.25l-.46-.13c-.45-.12-.89-.25-1.3-.38l-.1-.02c-.64-.2-1.24-.42-1.81-.67-3.46.57-7.27 1.74-11.77 3.63l-1.1.47-.07.03 1.18.44c5.28 1.99 12.72 2.99 22.06 2.96-1.58 1.41-3.09 2.99-4.54 4.51-11.9.17-21.39-.94-28.25-3.23-6.19-2.07-10.16-5.15-11.86-9.17-.07-.15-.13-.3-.18-.46a7.33 7.33 0 0 1-.17-.5c-.18-.56-.33-1.14-.43-1.72-.54-3.25.27-6.52 2.42-9.62 3.11-4.5 9.08-8.81 17.76-12.81 8.11-3.77 18.83-7.3 30.97-10.26 7.77-1.88 14.06-3.06 17.12-3.57 3.06-.51 9.42-1.51 17.35-2.29 8.67-.89 21.39-1.65 32.65-.57 9.55.91 16.61 3.06 21.05 6.32 2.99 2.22 4.81 4.98 5.35 8.24.14.78.2 1.57.17 2.37-.13 4.51-2.86 8.84-8.1 12.95-5.68 4.44-14.33 8.64-25.66 12.41-1.88-.97-3.9-1.98-5.92-2.86 8.78-3.09 15.47-6.46 19.91-10.02l.98-.81h-.2l-1.08-.06c-6.25-.4-10.93-.07-14.66 1.01l-.1.04-.1.07a42.523 42.523 0 0 1-8.41 4.44l-.47.17c-.91.37-1.88.74-2.86 1.07l-.61.2.02-.11c.04-.23.07-.47.1-.7.18-1.35.25-2.71.22-4.07 0-.21 0-.43-.03-.64-.03-.22-.02-.43-.04-.65l-.06-.66c-.02-.22-.05-.44-.08-.66-.04-.3-.08-.59-.13-.89-.05-.3-.12-.59-.18-.89-.03-.15-.06-.3-.09-.44-.51-2.3-1.35-4.5-2.49-6.56-.39-.7-.81-1.38-1.27-2.04-.14-.2-.28-.41-.43-.59-.15-.19-.25-.34-.38-.51a24.92 24.92 0 0 0-5.93-5.52c-1.63-1.1-3.39-1.99-5.24-2.66a25.148 25.148 0 0 0-12.01-1.25c-.4.04-.79.1-1.18.19h-.1c-4.01.8-7.76 2.57-10.93 5.14-1.46 1.16-2.77 2.5-3.91 3.98l-.1.12c-.77.99-1.46 2.04-2.07 3.14-.12.22-.24.44-.35.66-.09.17-.18.35-.27.54-.09.18-.15.3-.21.46-.33.74-.63 1.49-.89 2.25-.07.21-.14.41-.21.62-.07.21-.12.41-.18.62-.04.16-.09.32-.13.48 0 .03 0 .06-.02.09-.02.05-.03.11-.04.16-.04.14-.07.3-.1.43v.09c-.03.12-.05.23-.07.34-.02.12-.04.2-.06.3l-.12.65c-.08.49-.15.97-.21 1.46-.02.17-.04.33-.05.5-.02.22-.04.44-.05.67-.06 1-.06 2 0 3 .02.4.05.8.09 1.2 0 .09 0 .17.03.26.04.3.08.55.12.82 0 .06 0 .11.03.17v.03c0 .04.01.09.02.13v.03c0 .06.02.11.02.16l.06.35c.22 1.16.51 2.3.89 3.42.49 1.51 1.12 2.96 1.9 4.34h.02c.13.23.27.46.41.7l.15.24h.3H104.53l-1.21.06h.06c.3 0 .56 0 .84-.02h.77l.89-.04-.46-.73c-.05-.08-.1-.16-.15-.25a23.15 23.15 0 0 1-2.14-4.63c-.4-1.18-.7-2.4-.91-3.63-.07-.44-.13-.84-.17-1.28-.03-.23-.05-.47-.07-.7-.18-2.04-.09-4.1.27-6.12.64-3.8 2.2-7.38 4.54-10.43.33-.41.67-.82 1.01-1.21.86-.98 1.8-1.89 2.82-2.72 3.05-2.46 6.65-4.15 10.49-4.91l.1-.02.51-.09.59-.1c3.89-.55 7.85-.13 11.54 1.21 1.77.64 3.45 1.48 5.01 2.52 5.11 3.38 8.72 8.61 10.06 14.59.06.41.17.81.23 1.25.19 1.11.31 2.24.34 3.36.04 1.76-.12 3.52-.46 5.25 0 .07-.03.14-.04.22l-.17.87.84-.27.35-.12c.38-.13.74-.26 1.1-.38 1.01-.34 1.95-.71 2.89-1.08l.47-.17c3-1.19 5.87-2.7 8.54-4.51 3.36-.94 7.6-1.28 12.98-1.04l-.04.03c-4.51 3.38-11.15 6.57-19.74 9.48l-1.31.44h.01l1.26.5.11.04c2.45.99 4.84 2.12 7.16 3.37l.2.1h.14c11.54-3.85 20.34-8.11 26.16-12.64 5.48-4.27 8.34-8.87 8.47-13.69.02-.8-.04-1.65-.18-2.5zm-96.98 29.03h-.03v.06h.07l-.04-.06zm-.26.06-.12.02.12-.02zm-.04 1h.05l.58.02h.45c-.39 0-.79-.02-1.15-.04H100.42l.53.02zm-11.26-2.62.09.94c.3-.03.57-.03.89-.07.79-.06 1.58-.07 2.37-.04-1.06-.2-2.11-.47-3.15-.8l-.1-.03h-.1zm.19.03-.1-.03h-.09l.09.94c.3-.03.57-.03.89-.07.79-.06 1.58-.07 2.37-.04-1.07-.21-2.12-.49-3.15-.83l-.01.03zm10.99 1.59.11-.02-.11.02zm.38-.06h-.03v.06h.07l-.04-.06zm0 .01h-.03v.05h.07l-.04-.05zm-.38.05.11-.02-.11.02zm-10.99-1.62-.1-.03h-.09l.09.94c.3-.03.57-.03.89-.06.79-.06 1.58-.07 2.37-.04-1.07-.2-2.12-.47-3.16-.81z"/><path class="st0" d="m89.88 140.1-.1-.03h-.09l.09.94c.3-.03.57-.03.89-.06.79-.06 1.58-.07 2.37-.04-1.07-.2-2.12-.47-3.16-.81zm9.34 2.5h.18-.18zm1.65-.88.11-.02-.11.02zm.38-.06h-.03v.06h.07l-.04-.06zm96.98-29.03c-.57-3.53-2.52-6.49-5.72-8.88-4.57-3.4-11.83-5.58-21.56-6.53-11.33-1.11-24.11-.3-32.84.57-7.94.8-14.33 1.78-17.42 2.32-3.09.54-9.36 1.65-17.2 3.56-12.37 3.03-22.87 6.49-31.14 10.32-8.85 4.07-14.96 8.51-18.19 13.15-2.32 3.33-3.19 6.83-2.59 10.35.1.61.25 1.21.44 1.8.07.2.13.39.2.59.05.12.09.25.14.37 1.78 4.32 5.99 7.63 12.5 9.82 7 2.37 16.71 3.46 28.82 3.3h.2l.13-.17c1.75-1.85 3.62-3.76 5.5-5.38.04-.04.08-.07.12-.1l1.04-.91h-1.6c-8.98.09-16.21-.72-21.51-2.44h-.05l.06-.02c4.65-1.87 8.5-2.91 12.04-3.3h.02c2.59.81 5.78 1.33 9.49 1.54-2.19-.12-4.36-.39-6.51-.8-.39-.08-.77-.17-1.14-.25l-.46-.13c-.45-.12-.89-.25-1.3-.38l-.1-.02c-.64-.2-1.24-.42-1.81-.67-3.46.57-7.27 1.74-11.77 3.63l-1.1.47-.07.03 1.18.44c5.28 1.99 12.72 2.99 22.06 2.96-1.58 1.41-3.09 2.99-4.54 4.51-11.9.17-21.39-.94-28.25-3.23-6.19-2.07-10.16-5.15-11.86-9.17-.07-.15-.13-.3-.18-.46a7.33 7.33 0 0 1-.17-.5c-.18-.56-.33-1.14-.43-1.72-.54-3.25.27-6.52 2.42-9.62 3.11-4.5 9.08-8.81 17.76-12.81 8.11-3.77 18.83-7.3 30.97-10.26 7.77-1.88 14.06-3.06 17.12-3.57 3.06-.51 9.42-1.51 17.35-2.29 8.67-.89 21.39-1.65 32.65-.57 9.55.91 16.61 3.06 21.05 6.32 2.99 2.22 4.81 4.98 5.35 8.24.14.78.2 1.57.17 2.37-.13 4.51-2.86 8.84-8.1 12.95-5.68 4.44-14.33 8.64-25.66 12.41-1.88-.97-3.9-1.98-5.92-2.86 8.78-3.09 15.47-6.46 19.91-10.02l.98-.81h-.2l-1.08-.06c-6.25-.4-10.93-.07-14.66 1.01l-.1.04-.1.07a42.523 42.523 0 0 1-8.41 4.44l-.47.17c-.91.37-1.88.74-2.86 1.07l-.61.2.02-.11c.04-.23.07-.47.1-.7.18-1.35.25-2.71.22-4.07 0-.21 0-.43-.03-.64-.03-.22-.02-.43-.04-.65l-.06-.66c-.02-.22-.05-.44-.08-.66-.04-.3-.08-.59-.13-.89-.05-.3-.12-.59-.18-.89-.03-.15-.06-.3-.09-.44-.51-2.3-1.35-4.5-2.49-6.56-.39-.7-.81-1.38-1.27-2.04-.14-.2-.28-.41-.43-.59-.15-.19-.25-.34-.38-.51a24.92 24.92 0 0 0-5.93-5.52c-1.63-1.1-3.39-1.99-5.24-2.66a25.148 25.148 0 0 0-12.01-1.25c-.4.04-.79.1-1.18.19h-.1c-4.01.8-7.76 2.57-10.93 5.14-1.46 1.16-2.77 2.5-3.91 3.98l-.1.12c-.77.99-1.46 2.04-2.07 3.14-.12.22-.24.44-.35.66-.09.17-.18.35-.27.54-.09.18-.15.3-.21.46-.33.74-.63 1.49-.89 2.25-.07.21-.14.41-.21.62-.07.21-.12.41-.18.62-.04.16-.09.32-.13.48 0 .03 0 .06-.02.09-.02.05-.03.11-.04.16-.04.14-.07.3-.1.43v.09c-.03.12-.05.23-.07.34-.02.12-.04.2-.06.3l-.12.65c-.08.49-.15.97-.21 1.46-.02.17-.04.33-.05.5-.02.22-.04.44-.05.67-.06 1-.06 2 0 3 .02.4.05.8.09 1.2 0 .09 0 .17.03.26.04.3.08.55.12.82 0 .06 0 .11.03.17v.03c0 .04.01.09.02.13v.03c0 .06.02.11.02.16l.06.35c.22 1.16.51 2.3.89 3.42.49 1.51 1.12 2.96 1.9 4.34h.02c.13.23.27.46.41.7l.15.24h.3H104.53l-1.21.06h.06c.3 0 .56 0 .84-.02h.77l.89-.04-.46-.73c-.05-.08-.1-.16-.15-.25a23.15 23.15 0 0 1-2.14-4.63c-.4-1.18-.7-2.4-.91-3.63-.07-.44-.13-.84-.17-1.28-.03-.23-.05-.47-.07-.7-.18-2.04-.09-4.1.27-6.12.64-3.8 2.2-7.38 4.54-10.43.33-.41.67-.82 1.01-1.21.86-.98 1.8-1.89 2.82-2.72 3.05-2.46 6.65-4.15 10.49-4.91l.1-.02.51-.09.59-.1c3.89-.55 7.85-.13 11.54 1.21 1.77.64 3.45 1.48 5.01 2.52 5.11 3.38 8.72 8.61 10.06 14.59.06.41.17.81.23 1.25.19 1.11.31 2.24.34 3.36.04 1.76-.12 3.52-.46 5.25 0 .07-.03.14-.04.22l-.17.87.84-.27.35-.12c.38-.13.74-.26 1.1-.38 1.01-.34 1.95-.71 2.89-1.08l.47-.17c3-1.19 5.87-2.7 8.54-4.51 3.36-.94 7.6-1.28 12.98-1.04l-.04.03c-4.51 3.38-11.15 6.57-19.74 9.48l-1.31.44h.01l1.26.5.11.04c2.45.99 4.84 2.12 7.16 3.37l.2.1h.14c11.54-3.85 20.34-8.11 26.16-12.64 5.48-4.27 8.34-8.87 8.47-13.69.02-.8-.04-1.65-.18-2.5zm-96.98 29.03h-.03v.06h.07l-.04-.06zm-.26.06-.12.02.12-.02zm-.04 1h.05l.58.02h.45c-.39 0-.79-.02-1.15-.04H100.42l.53.02zm-11.26-2.62.09.94c.3-.03.57-.03.89-.07.79-.06 1.58-.07 2.37-.04-1.06-.2-2.11-.47-3.15-.8l-.1-.03h-.1zm.19.03-.1-.03h-.09l.09.94c.3-.03.57-.03.89-.07.79-.06 1.58-.07 2.37-.04-1.07-.21-2.12-.49-3.15-.83l-.01.03zm10.99 1.59.11-.02-.11.02zm0 0 .11-.02-.11.02zm-10.99-1.62-.1-.03h-.09l.09.94c.3-.03.57-.03.89-.06.79-.06 1.58-.07 2.37-.04-1.07-.2-2.12-.47-3.16-.81z"/><path class="st0" d="m100.97 141.7-.17.03h-.04c-.62-.02-1.23-.05-1.82-.08-.75-.04-1.48-.1-2.19-.18a41.62 41.62 0 0 1-3.32-.46c-1.21-.22-2.41-.51-3.58-.89l-.1-.04h-.1c-.65.07-1.3.17-1.97.3-3.4.59-7.14 1.72-11.54 3.55-4.56-1.72-7.43-4.23-8.54-7.43-.06-.17-.12-.35-.17-.54-.05-.18-.08-.31-.12-.47-.04-.21-.08-.41-.12-.61-.47-2.76.27-5.48 2.19-8.07l.13-.17c2.6-3.44 7.31-6.74 14.04-9.8 3.64-1.63 7.36-3.05 11.16-4.26 4.14-1.35 8.7-2.62 13.52-3.78 2.15-.51 4.12-.96 5.89-1.33.09-.02.17-.04.26-.05-1.56.79-3.02 1.75-4.37 2.86a23.12 23.12 0 0 0-3.94 4.03l-.06.08a24.717 24.717 0 0 0-3.8 7.08c-.07.21-.14.41-.21.62-.07.21-.12.41-.18.62-.03.09-.05.18-.07.28-.02.09-.04.14-.06.2-.02.07 0 .06-.02.09-.02.05-.03.11-.04.16-.04.14-.07.3-.1.43v.09c-.03.12-.05.22-.07.34-.02.12-.04.2-.06.3 0 .04-.02.07-.02.11-.04.17-.07.34-.1.51-.09.5-.16 1-.21 1.5-.02.17-.04.33-.05.5-.02.22-.04.44-.05.67-.06 1-.06 2 0 3 .02.4.05.8.1 1.2 0 .08 0 .16.02.23.04.3.08.57.12.85 0 .03.01.06.02.09l.06.41c.05.3.1.59.17.89 0 .03 0 .06.01.09.04.16.07.33.11.49.15.65.32 1.25.5 1.83.05.16.1.3.15.47l.2.55c.07.19.14.37.21.56.15.37.3.73.46 1.09.07.16.14.3.21.46.07.17.14.3.22.45.2.41.42.82.65 1.22.13.23.27.46.41.7l.15.24h.3H104.58l-1.21.06h.06c.3 0 .57 0 .84-.02H105.11l.87-.04-.43-.73c-.05-.08-.1-.16-.15-.25-.9-1.45-1.64-2.99-2.2-4.61-.39-1.18-.69-2.4-.89-3.63-.07-.43-.13-.84-.17-1.28a22.812 22.812 0 0 1 .22-6.83c.65-3.79 2.21-7.37 4.55-10.43.25-.32.51-.63.77-.94 3.49-4.1 8.27-6.88 13.56-7.9v-.02l-.16-.94v-.02c-.48.08-1.07.19-1.75.31-2.59.48-6.54 1.26-11.24 2.37-9.85 2.37-18.19 5.08-24.85 8.11-6.76 3.09-11.6 6.42-14.32 9.95l-.14.17c-2.18 2.89-3.03 5.92-2.49 9.01.04.21.08.41.12.59.05.19.09.38.14.57.04.14.09.3.13.43 1.09 3.33 3.85 5.95 8.18 7.81.02.01.05.02.07.04.35.15.72.3 1.1.44l.2.07.17-.07c.4-.17.8-.33 1.18-.49l.07-.02c4.62-1.86 8.45-2.91 12.01-3.31h.05c.43.13.87.26 1.33.38-.45-.12-.89-.25-1.3-.38l-.1-.02h-.04c-.64-.2-1.24-.42-1.81-.67.65-.11 1.29-.2 1.91-.27l.09.94c.3-.03.57-.03.89-.07.79-.06 1.58-.07 2.37-.04 1.38.27 2.77.47 4.17.59a55.386 55.386 0 0 0 3.65.22h.03l.11-.02.13-.02.1-.02v.05h.44c.55 0 1.09.03 1.61.03h.84c-.01-.01-.01-.02-.02-.03h-.89c-.51 0-1.05-.02-1.6-.03h-.22l-.1-.02h-.07l-.26-.03zm.05 1.08h.01l.56.02h.45c-.39 0-.79-.02-1.15-.04h-.39l.52.02zm-.05-1.06.07.02-.07-.02zm3.13.09h-.89c-.51 0-1.05-.02-1.6-.03h-.22l-.1-.02h-.07v.03h.44c.55 0 1.09.03 1.61.03h.84c-.01-.01-.01-.02-.02-.03l.01.02zM148.89 135.21l.17-.89c.37-1.8.54-3.64.5-5.48-.03-1.12-.14-2.24-.34-3.35-.07-.44-.17-.84-.23-1.24a23.767 23.767 0 0 0-10.06-14.6 23.068 23.068 0 0 0-5.01-2.52 23.97 23.97 0 0 0-11.54-1.21l-.17-.98c2.29-.37 7.06-1.11 13.11-1.68 6.82-.67 16.85-1.28 25.86-.47h.07c7.53.67 13.25 2.25 17.05 4.71l.17.1c2.99 1.99 4.78 4.51 5.28 7.57.07.44.12.89.13 1.34.13 3.87-1.95 7.64-6.21 11.13l-.17.13h-.2c-5.98-.37-10.65-.07-14.29.98a44.694 44.694 0 0 1-8.54 4.51l-.47.17c-.94.37-1.88.74-2.89 1.08-.47.17-.94.33-1.45.5l-.77.2zm-19.68-30.33c1.71.24 3.4.66 5.03 1.25 1.85.67 3.61 1.56 5.24 2.66a25.03 25.03 0 0 1 8 8.68 24.05 24.05 0 0 1 2.48 6.55c.1.44.17.89.27 1.31.2 1.16.31 2.33.34 3.5.04 1.63-.07 3.26-.34 4.88l.61-.2c.98-.34 1.95-.71 2.86-1.08l.47-.17c2.96-1.16 5.78-2.65 8.41-4.44l.1-.07.1-.04c3.7-1.07 8.31-1.38 14.46-1.01 3.9-3.25 5.82-6.69 5.68-10.19-.01-.42-.06-.83-.13-1.24-.47-2.72-2.05-5.01-4.71-6.83l-.13-.1c-3.63-2.39-9.25-3.94-16.68-4.64h-.07c-8.94-.8-18.93-.2-25.76.47-2.28.24-4.37.48-6.23.71z"/><path class="st0" d="M101.35 141.67v.03l.1-.02-.1-.01zm2.8.04h-.89c-.51 0-1.05-.02-1.6-.03l.05.03c.55 0 1.09.03 1.61.03h.84c0-.01 0-.02-.01-.03zm-3.07-.07-.22.04h-.02c-.62-.02-1.22-.05-1.81-.09-.68-.04-1.33-.09-1.97-.15-1.29-.11-2.56-.29-3.83-.54-1.13-.21-2.25-.49-3.34-.84l-.1-.03h-.03l-.06-.03c-3.51-1.17-5.89-2.94-7.09-5.3-.11-.22-.22-.45-.31-.69-.05-.12-.09-.24-.14-.36-.15-.42-.26-.85-.33-1.28-.3-1.62.24-3.25 1.58-4.94 1.16-1.39 2.51-2.6 4.02-3.6 2.01-1.37 4.12-2.59 6.32-3.64 3.67-1.76 7.45-3.29 11.32-4.58l.07-.03c-.41.62-.8 1.25-1.15 1.9-.12.22-.24.44-.35.66-.09.17-.18.35-.27.54-.09.18-.15.3-.21.46-.33.74-.63 1.49-.89 2.25-.07.21-.14.41-.21.62-.07.21-.12.41-.18.62-.04.16-.09.32-.13.48 0 .03 0 .06-.02.09a.75.75 0 0 0-.04.16c-.04.14-.07.3-.1.43v.09c-.03.12-.05.23-.07.34-.02.12-.06.28-.09.41a19.311 19.311 0 0 0-.31 2.01c-.02.17-.04.33-.05.5-.02.22-.04.44-.05.67-.06 1-.06 2 0 3 .02.4.05.8.1 1.2 0 .08 0 .16.02.23.04.3.08.57.12.85 0 .03.01.06.02.09l.06.41c.05.3.1.59.17.89 0 .03 0 .06.01.09.04.16.07.33.11.49.15.64.32 1.25.5 1.83.05.16.1.3.15.47l.2.55c.07.19.14.37.21.56.14.37.3.73.46 1.09.07.16.14.3.21.46.07.17.15.3.22.45.2.41.42.82.65 1.22.13.23.27.46.41.7l.15.24h.3H104.63l-1.21.06h.06c.3 0 .56 0 .84-.02H105.16l.87-.04-.4-.7c-.06-.09-.12-.19-.17-.3-.87-1.45-1.58-2.99-2.12-4.59-.4-1.18-.71-2.4-.91-3.63-.07-.44-.14-.84-.17-1.28-.27-2.27-.2-4.57.2-6.83.65-3.8 2.22-7.37 4.57-10.43l.74-.97.23-.3-.09.03-1.45.47-.24.08h-.04c-.03 0-.06 0-.08.03-2.37.79-4.59 1.59-6.67 2.41-2.17.85-4.16 1.73-5.99 2.62-5.11 2.46-8.74 4.98-10.73 7.5-1.51 1.92-2.12 3.87-1.77 5.75.08.38.18.75.3 1.11.07.25.16.5.26.74.04.1.08.2.13.3 1.06 2.4 3.12 4.27 6.17 5.6l.05.02.08.03c.65-.11 1.29-.2 1.91-.27l.09.94c.3-.03.57-.03.89-.07.79-.06 1.58-.07 2.37-.04 1.38.27 2.77.47 4.17.59a55.386 55.386 0 0 0 3.65.22h.03l.11-.02.13-.02.1-.01-.3.03zm3.17.07c-.01-.01-.02-.02-.02-.03h-.89c-.51 0-1.05-.02-1.6-.03l.05.03c.55 0 1.09.03 1.61.03h.85zm-2.83-.04.1-.02h-.1v.02zm-.29.99h.02l.56.02h.45c-.39 0-.79-.02-1.15-.04H100.55l.58.02zm3.02-.96h-.89c-.51 0-1.05-.02-1.6-.03h-.39v.03h.44c.55 0 1.09.03 1.61.03h.84c0-.01 0-.02-.01-.03zM148.92 135.19l.17-.89c.37-1.8.54-3.64.5-5.48-.03-1.12-.14-2.24-.34-3.35-.07-.44-.17-.84-.23-1.24a23.767 23.767 0 0 0-10.06-14.6l-1.35-.91 1.62-.03c4.57-.08 9.14.12 13.68.59 5.65.67 9.89 1.81 12.65 3.5 2.15 1.28 3.4 2.89 3.7 4.78.1.64.13 1.3.1 1.95-.17 3.25-2.25 6.32-6.19 9.12l-.1.06c-2.22 1.58-5.11 3.06-8.51 4.47l-.47.17c-.94.37-1.88.74-2.89 1.08-.47.17-.94.34-1.45.5l-.83.28zm-8.14-25.52a24.71 24.71 0 0 1 6.72 7.77c1.15 2.05 1.99 4.26 2.5 6.56.1.44.17.89.27 1.31.2 1.16.31 2.33.34 3.5.04 1.63-.07 3.26-.34 4.88l.61-.2c.98-.34 1.95-.71 2.86-1.08l.47-.17c2.96-1.16 5.78-2.65 8.41-4.44l.1-.07c3.6-2.59 5.52-5.38 5.65-8.28.03-.57 0-1.15-.1-1.72-.26-1.57-1.35-2.91-3.22-4.06-2.62-1.58-6.73-2.69-12.24-3.36-4.01-.44-8.02-.65-12.03-.64z"/><path class="st0" d="M104.1 141.75h-.89c-.51 0-1.05-.02-1.6-.03l.05.03c.55 0 1.09.03 1.61.03h.84c.01-.01 0-.02-.01-.03zm1.8.93-.4-.7c-.06-.09-.12-.19-.17-.3-.87-1.45-1.58-2.99-2.12-4.59-.4-1.18-.71-2.4-.91-3.63-.07-.44-.14-.84-.17-1.28l-.1-.81-.09.06-.57.37-.36.24H101c-.86.58-1.67 1.24-2.41 1.96-1.25 1.25-1.86 2.5-1.82 3.7v.17c.01.28.05.57.14.84.02.09.05.18.08.27.21.61.54 1.17.97 1.65.3.34.63.64.99.91.01.01.03.02.05.03 0 0 .03.02.04.04.59.04 1.2.06 1.84.08h.03l-.07-.03-.06-.03-.06-.03-.13-.1h-.04c-.1-.05-.2-.11-.3-.17-.71-.39-1.33-.93-1.82-1.57-.28-.37-.48-.8-.59-1.25-.01-.09-.03-.18-.04-.3-.01-.11-.04-.26-.06-.39-.1-.94.44-1.98 1.51-3.09.59-.6 1.24-1.14 1.93-1.63.01.06.01.12.01.18v.03c0 .04.01.09.02.13v.03c0 .04.02.09.02.13.05.3.1.59.17.89 0 .03 0 .06.02.09.04.16.07.33.11.49.15.64.32 1.25.5 1.83.05.16.1.3.15.47l.2.55c.07.19.14.37.21.56.15.37.3.73.46 1.09.07.16.14.3.21.46.07.17.14.3.22.45.2.41.42.82.65 1.22.13.23.27.46.41.7l.15.24h.3H104.53l-1.21.06h.06c.3 0 .57 0 .84-.02H105.06l.87-.04-.03.04zm-1.77-.89c-.01-.01-.01-.02-.02-.03h-.89c-.51 0-1.05-.02-1.6-.03l.05.03c.55 0 1.09.03 1.61.03h.85zm-.03-.03h-.89c-.51 0-1.05-.02-1.6-.03h-.22l-.1.02h.37c.55 0 1.09.03 1.61.03h.84c-.01-.01-.01-.02-.02-.03v.01zM148.87 135.2l.17-.89c.37-1.8.54-3.64.5-5.48-.03-1.12-.14-2.24-.34-3.35-.07-.44-.17-.84-.23-1.24l-.17-.81.81.2c1.09.25 2.14.62 3.16 1.08 1.82.84 2.89 1.92 3.19 3.16.04.17.07.34.1.54.24 1.65-.37 3.25-1.85 4.81l-.07.07-.1.04c-.94.37-1.88.74-2.89 1.08-.47.17-.94.33-1.45.5l-.83.29zm1.24-10.39.1.5c.2 1.16.31 2.33.34 3.5.04 1.63-.07 3.26-.34 4.88l.61-.2c.94-.34 1.85-.67 2.76-1.04 1.18-1.31 1.68-2.62 1.51-3.9-.04-.14-.04-.27-.07-.44-.24-.94-1.14-1.77-2.66-2.49-.73-.33-1.48-.6-2.25-.81zM169.84 144.63c-1.51-.64-3.33-1.58-5.25-2.56l-1.11-.57.47-.89 1.11.57c1.92.97 3.7 1.92 5.18 2.52l-.4.93z"/><path class="st0" d="m154.62 133.05-.64-.77c2.49-2.03 5.34-3.56 8.4-4.51.1-.03.2-.06.3-.1l.23.98c-.07.03-.17.03-.23.07a23.94 23.94 0 0 0-8.06 4.33zM199.73 129.99c-2.96-.17-6.32-.57-10.06-1.08l-.3-.03c-3.93-.47-8.01-.98-12.01-1.25l.05-1c4.04.24 8.11.74 12.07 1.25l.3.03c3.73.47 7.06.89 10.02 1.04l-.07 1.04z"/><path class="st0" d="m151.35 134.28-.81-.59c1.72-2.22 3.2-3.97 4.61-5.52 4.3-4.67 8.54-7.56 13.35-9.11l.1-.04c4.1-1.31 8.91-2.32 14.7-3.03 4.88-.59 9.85-.97 14.63-1.31l.51-.03c4.87-.35 9.44-.69 13.82-1.26l.13 1.01c-4.41.57-9.01.91-13.89 1.25l-.51.03c-4.78.34-9.72.71-14.59 1.31-5.72.71-10.49 1.68-14.53 2.99l-.1.03c-4.61 1.48-8.71 4.3-12.91 8.85-1.35 1.49-2.8 3.24-4.51 5.42z"/><path class="st0" d="m150.5 129.13-.85-.54c.91-1.41 1.72-2.62 2.49-3.7 4.03-5.62 8.04-9.42 12.68-11.97l.07-.03c.06-.03.12-.06.17-.1 3.53-1.95 7.8-3.66 12.98-5.32h.03c4.41-1.38 8.81-2.49 14.09-3.8l.3-.07c4.34-1.07 8.44-2.07 12.34-3.25l.3.94c-3.9 1.18-8.03 2.22-12.38 3.3l-.3.07c-5.27 1.33-9.67 2.43-14.07 3.8h-.03c-5.11 1.62-9.32 3.33-12.81 5.24-.07.04-.1.07-.14.07l-.06.03c-4.47 2.49-8.41 6.19-12.34 11.7-.76 1.04-1.56 2.25-2.47 3.63zM147.48 117.92l-.87-.51c1.49-2.68 3.28-5.17 5.35-7.43.17-.17.34-.37.51-.54 2.19-2.25 4.98-4.44 8.47-6.66l.1-.06c3.06-1.95 6.36-3.7 9.72-5.48l.51-.27c2.72-1.45 5.32-2.79 7.69-4.17l.51.89c-2.42 1.41-5.01 2.76-7.74 4.2l-.5.27c-3.4 1.78-6.69 3.53-9.76 5.48l-.1.06c-3.41 2.14-6.11 4.26-8.22 6.45l-.5.5c-1.97 2.25-3.7 4.68-5.17 7.27zM134.53 106.78l-.94-.37c.37-.91.81-1.82 1.34-2.96.91-1.85 1.92-3.7 2.86-5.41l.33-.57c.84-1.54 1.75-3.13 2.52-4.67l.91.44c-.78 1.55-1.68 3.16-2.52 4.71l-.33.57c-.94 1.72-1.95 3.53-2.86 5.38-.54 1.1-.98 2.01-1.31 2.88zM109.97 110.94c-.67-.78-1.41-1.52-2.22-2.32-1.38-1.38-2.83-2.66-4.44-4.1l-.44-.37c-1.41-1.28-2.76-2.45-4.04-3.7l.71-.72c1.25 1.21 2.59 2.42 4 3.66l.44.37c1.61 1.45 3.06 2.76 4.47 4.14.8.8 1.54 1.58 2.25 2.37l-.73.67zM163 128.65a44.398 44.398 0 0 1-8.54 4.51l-.47.17c-.94.37-1.88.74-2.89 1.08-.36.13-.72.26-1.1.38l-.35.12-.84.27.17-.87c.01-.07.03-.14.04-.22-1.04.34-2.16.69-3.37 1.06-2.15.64-4.47 1.24-7.03 1.85-2.56.61-5.21 1.18-7.97 1.68-1.24.24-2.35.43-3.33.59-.94.13-2.09.34-3.36.54-2.89.47-5.48.84-7.93 1.11-2.62.3-5.11.54-7.47.67-1.07.06-2.17.09-3.23.12h-.11c.05.09.1.17.15.25l.46.73h.07c.63-.02 1.25-.04 1.87-.07l.93-.05c2.37-.14 4.88-.37 7.49-.67 2.46-.27 5.04-.64 7.97-1.11.54-.07 1.06-.15 1.55-.23l.85-.14.3-.05c.23-.04.45-.08.66-.11.98-.17 2.12-.37 3.36-.61 2.79-.51 5.48-1.08 8.04-1.68 1.14-.27 2.23-.54 3.28-.82h.06c1.31-.35 2.56-.7 3.76-1.05 1.31-.37 2.52-.77 3.67-1.14.1-.04.2-.07.3-.11.39-.13.77-.26 1.15-.4 1.01-.34 1.95-.71 2.89-1.08l.47-.17c3.43-1.41 6.29-2.92 8.54-4.51 3.35-.94 7.56-1.28 12.91-1.04l.04-.03c-5.38-.25-9.63.09-12.99 1.03zm-61.97 13.04-.22.04h-.02c-.62-.02-1.22-.05-1.81-.09-.68-.04-1.33-.09-1.97-.15-1.29-.11-2.56-.29-3.83-.54-1.13-.21-2.25-.49-3.34-.84l-.1-.03h-.1c-.63.07-1.27.16-1.92.27-3.46.58-7.26 1.73-11.76 3.63l-1.1.47-.07.04.08.03 1.09.41c5.55 2.07 13.42 3.09 23.4 2.96h.19c2.91-.04 6.04-.17 9.26-.4l.57-.03c.2-.03.44-.03.67-.07l.27-.03c1.35-.1 2.66-.2 3.94-.34.78-.07 1.51-.17 2.22-.23l1.45-.17c.64-.07 1.28-.17 1.88-.24l.17-.03c2.02-.24 3.97-.51 5.85-.81 1.01-.13 1.85-.27 2.56-.4.7-.13 1.58-.27 2.42-.47 1.98-.37 3.93-.78 5.88-1.21.67-.13 1.35-.27 2.05-.43l1.38-.34c.64-.17 1.28-.3 1.95-.47 1.21-.27 2.46-.61 3.73-.94l.78-.2c.3-.07.57-.17.87-.23l.1-.04c3.04-.86 5.99-1.75 8.75-2.68l.13-.04h.04c9.43-3.2 16.53-6.73 21.14-10.51l.91-.75.06-.06-1.28-.07c-6.25-.41-10.93-.07-14.66 1.01l-.1.03-.1.07a42.523 42.523 0 0 1-8.41 4.44l-.47.17c-.91.37-1.88.74-2.86 1.08l-.45.16h-.01l-.94.33-.26.09c-1.04.34-2.16.69-3.37 1.06-2.15.64-4.47 1.24-7.03 1.85-2.56.61-5.21 1.18-7.97 1.68-1.24.24-2.35.43-3.33.59-.94.13-2.09.34-3.36.54-2.89.47-5.48.84-7.93 1.11-2.62.3-5.11.54-7.47.67-1.07.06-2.17.09-3.23.12h-.41c-.28 0-.54.02-.81.03h-.9c-.51 0-1.05-.02-1.6-.03h-.39v.07h.44c.55 0 1.09.03 1.61.03h.84c-.01-.01-.02-.02-.02-.03h.02c.13.23.27.46.41.7l.15.24h1.23c.63-.02 1.25-.04 1.87-.07l.93-.05c2.37-.14 4.88-.37 7.49-.67 2.46-.27 5.04-.64 7.97-1.11.54-.07 1.06-.15 1.55-.23l.85-.14.3-.05c.23-.04.45-.08.66-.11.98-.17 2.12-.37 3.36-.61 2.79-.51 5.48-1.08 8.04-1.68 1.14-.27 2.23-.54 3.28-.82h.06c1.31-.35 2.56-.7 3.76-1.05 1.31-.37 2.52-.77 3.67-1.14.1-.04.2-.07.3-.11.39-.13.77-.26 1.15-.4 1.01-.34 1.95-.71 2.89-1.08l.47-.17c3.43-1.41 6.29-2.92 8.54-4.51 3.35-.94 7.56-1.28 12.91-1.04h.07c-4.51 3.4-11.13 6.56-19.74 9.48h-.03l-1.33.44c-2.4.78-4.91 1.54-7.51 2.25l-.1.03c-.3.07-.57.17-.89.24l-.94.23c-1.21.34-2.42.64-3.57.91-.67.17-1.31.3-1.95.47l-1.38.34c-.71.13-1.38.3-2.05.44-1.95.4-3.9.81-5.85 1.18-.94.17-1.78.3-2.52.43-.75.14-1.55.27-2.52.41-1.85.27-3.85.57-5.82.81l-.17.03c-.59.1-1.24.17-1.88.24l-1.45.17c-.71.1-1.45.17-2.19.24-1.28.1-2.59.24-3.9.34l-.23.03c-.24.03-.44.03-.67.07l-.57.03c-2.92.21-5.73.34-8.39.39l-1.02.02h-.23c-8.96.09-16.18-.71-21.48-2.43l-.05-.01h-.03c4.64-1.87 8.45-2.91 12.07-3.32h-.03c-.64-.2-1.24-.42-1.81-.67.65-.11 1.29-.2 1.91-.27l.09.94c.3-.03.57-.03.89-.07.79-.06 1.58-.07 2.37-.04 1.38.27 2.77.47 4.17.59a55.386 55.386 0 0 0 3.65.22h.03l.11-.02.13-.02.1-.02M101.4 125.66c-2.24-1.95-4.7-3.64-7.33-5.03l-.81-.4c-2.83-1.38-6.12-2.46-10.06-3.36-3.43-.81-7.03-1.35-10.69-1.92l-.59-.1c-3.06-.47-5.95-.91-8.74-1.45l.2-.98c2.79.54 5.68.98 8.71 1.45l.59.1c3.7.57 7.3 1.11 10.76 1.92 3.54.76 6.98 1.91 10.26 3.43l.81.4c2.71 1.42 5.24 3.16 7.54 5.18l-.65.76zM102.35 137.65c-1.35-1.04-2.59-1.99-3.8-2.83-5.48-3.85-10.35-6.12-15.37-7.13l-.34-.07c-3.85-.74-8.31-1.01-13.72-.8h-.03c-4.88.17-9.95.67-14.43 1.11h-.1c-4.64.47-9.01.91-13.08 1.07l-.04-1.01c4.04-.17 8.41-.59 13.02-1.07h.1c4.47-.44 9.55-.94 14.46-1.11h.04c5.48-.2 10.06.06 13.95.84l.34.07c5.14 1.04 10.16 3.36 15.74 7.3 1.21.89 2.49 1.77 3.85 2.86l-.59.77z"/><path class="st0" d="M103.57 141.82h-.3c-.52 0-1.07-.02-1.61-.03l-.05-.03a63.698 63.698 0 0 0-4.52-2.62l-.12-.06c-5.19-2.75-9.78-4.12-14.43-4.29-.21 0-.43-.01-.65-.02h-.42c-3.97 0-8.51.57-13.9 1.71l-.51.1-.41.09c-4.55.97-9.13 2.25-13.24 3.39l-.55.15-.49.13c-4.78 1.35-9.28 2.59-13.49 3.46l-.22-.97c4.14-.87 8.63-2.1 13.35-3.44l.07-.02.5-.14.46-.13c4.12-1.14 8.75-2.41 13.31-3.44l.45-.1.46-.1c5.35-1.14 9.87-1.72 13.81-1.75h1c4.78.1 9.47 1.39 14.66 4.06l.78.41.22.12c1.7.91 3.57 2.04 5.77 3.48l.07.04z"/><path class="st0" d="m101.1 141.73-.13.02-.11.02h-.03c-.62-.02-1.24-.05-1.84-.08-.62-.04-1.22-.08-1.81-.14l-.2-.05-.27-.06c-1.09-.24-2.2-.4-3.32-.46l-.23-.01h-.14c-.79-.04-1.58-.02-2.37.04-.3.03-.57.03-.89.07l-.09-.94v-.07c.3-.04.6-.06.91-.07 2.47-.17 4.95.07 7.35.72.75.2 1.51.43 2.28.69l.3.1h.07l.1.07.28.11.07.02c.01.01.04.01.07.02zM56.1 154.41l-.37-.91c2.89-1.21 5.92-2.69 9.11-4.27l.24-.1c3.55-1.75 7.23-3.55 10.93-5.11l.37.91c-3.67 1.55-7.33 3.33-10.86 5.08l-.23.13c-3.24 1.57-6.27 3.05-9.19 4.27zM129.23 149.96c-.47.07-.98.17-1.51.23-1.01.17-2.15.34-3.4.54l-.3.04-1.55.2c-.54.07-1.11.17-1.71.23h-.11c-.91.14-1.88.24-2.86.37h-.1l-1.24.13c-7.53.9-15.1 1.41-22.69 1.55l-1.18.03.81-.89c1.8-1.94 3.7-3.8 5.68-5.55l.13-.13h.17c3.33-.04 6.93-.2 10.65-.51l.27-.03c1.35-.1 2.66-.24 3.9-.34.77-.07 1.55-.17 2.29-.23l1.35-.17c.64-.07 1.24-.14 1.81-.24l.2-.03c2.02-.24 3.97-.54 5.82-.81.98-.14 1.82-.27 2.52-.4.74-.14 1.58-.27 2.52-.44 1.95-.37 3.9-.78 5.85-1.18.67-.14 1.35-.3 2.05-.44l1.51-.37c.61-.13 1.21-.27 1.82-.44 1.14-.27 2.32-.57 3.53-.91l.94-.23c3.43-.94 6.72-1.92 9.78-2.96l.2-.04.13.04c2.49.97 5.01 2.25 7.37 3.46l1.07.54-1.13.39c-7.27 2.38-14.66 4.39-22.13 6.02l-2.02.44c-.74.17-1.45.3-2.12.44l-.64.13-1.08.2c-.37.07-.77.17-1.14.24l-.64.13c-1.25.24-2.39.44-3.4.64-.44.17-.92.29-1.42.35zm-11.63.67h.13c.94-.1 1.88-.23 2.79-.37h.1c.57-.07 1.14-.17 1.68-.23s1.08-.14 1.55-.2l.27-.03c1.25-.2 2.37-.37 3.36-.5.5-.11 1-.19 1.51-.24.47-.07.98-.17 1.48-.27 1.01-.17 2.15-.4 3.4-.64l.64-.13c.37-.07.74-.14 1.14-.24.34-.07.71-.13 1.04-.2l.64-.14c.67-.13 1.38-.3 2.12-.43l1.98-.44c7.5-1.68 14.53-3.55 20.88-5.62-1.95-1.01-4-1.98-6.02-2.79-3.03 1.01-6.29 2.02-9.69 2.93l-.78.2c-1.28.34-2.52.67-3.73.94-.61.14-1.21.3-1.82.44l-1.55.37c-.71.17-1.38.3-2.05.44-1.95.44-3.94.84-5.89 1.21-.94.17-1.78.34-2.52.44-.75.1-1.55.27-2.56.4-1.89.3-3.84.57-5.85.81l-.2.04c-.61.06-1.21.13-1.85.23l-1.35.17c-.74.07-1.51.17-2.32.24-1.28.13-2.59.23-3.93.33l-.27.04c-3.7.27-7.23.43-10.53.5-1.58 1.38-3.16 2.96-4.64 4.51 6.62-.13 13.82-.67 21.39-1.55l1.45-.22z"/><path class="st0" d="m89.12 158.26-.67-.74c1.21-1.07 2.62-2.59 4.1-4.17l.84-.91.74.71-.84.89c-1.51 1.6-2.92 3.11-4.17 4.22zM149.96 133.9l-.44.91 6.61 3.24.44-.91-6.61-3.24zM104.59 142.71l-.04.03c-.33.32-2.59 2.52-4.14 4.08-.01.02-.03.03-.05.05l-.54.54-.74-.51.07-.07.07-.07s3.3-3.55 4.1-4l1.21-.06h.06zM104.97 142.66H104.51l-1.21.06h-1.25c-.39 0-.79-.02-1.15-.04H99.6c-.06.01-.11.01-.17 0h-.27c-2.19-.12-4.36-.39-6.51-.8-.39-.08-.77-.17-1.14-.25l-.46-.2c-.45-.12-.89-.25-1.3-.38l-.1-.02h-.03c-.64-.2-1.24-.42-1.81-.67.65-.11 1.29-.2 1.91-.27l.09.94c.3-.03.57-.03.89-.07.79-.06 1.58-.07 2.37-.04 1.38.27 2.77.47 4.17.59a55.386 55.386 0 0 0 3.65.22h.03l.11-.02.13-.02.1-.02v.04h.44c.55 0 1.09.03 1.61.03h.84c-.01-.01-.01-.02-.02-.03h.02c.13.23.27.46.41.7l.15.24.26.01z"/><path class="st0" d="M150.35 132.93c-.04.24-.07.48-.12.71-.05.3-.12.61-.18.91l-.05.21-.01.05v.02l-.27.09c-1.31.44-2.6.83-3.68 1.15-1.18.35-2.43.69-3.77 1.04h-.06c-1.03.27-2.11.53-3.25.8-2.89.7-5.57 1.22-8.03 1.69-1.04.2-2.11.39-3.37.61l-.68.12-.3.05-.85.14c-.48.07-1.01.15-1.55.22-2.85.46-5.46.83-7.99 1.11-2.59.3-5.12.52-7.52.68l-.89.05c-.62.03-1.24.06-1.87.07h-1.25l-.15-.24c-.14-.24-.28-.47-.41-.7-.23-.41-.45-.81-.65-1.22-.08-.15-.15-.3-.22-.45-.07-.15-.14-.3-.21-.46-.17-.37-.32-.73-.46-1.09-.07-.19-.14-.37-.21-.56-.07-.19-.14-.4-.2-.59l-.14-.42c-.18-.59-.35-1.18-.5-1.83-.04-.16-.07-.33-.11-.49 0-.03 0-.06-.01-.09-.04-.17-.07-.34-.11-.51-.03-.17-.06-.28-.08-.43l-.07-.44-.14-.89c0-.07-.02-.13-.02-.19-.26-2.31-.18-4.65.23-6.94.59-3.4 1.89-6.63 3.81-9.5.3-.46.63-.91.96-1.35 1.17-1.51 2.5-2.88 3.97-4.1 2.74-2.23 5.92-3.86 9.33-4.78.52-.14 1.05-.27 1.59-.37l1.22-.21c4.27-.62 8.62-.12 12.63 1.46 4.01 1.58 7.54 4.17 10.24 7.54.14.17.3.35.42.53s.26.34.38.51c.12.17.3.4.43.59.42.62.81 1.25 1.18 1.9a24.77 24.77 0 0 1 2.5 6.53c.07.21.13.41.17.61.07.27.13.55.17.82v.05c.05.3.09.59.13.89.03.22.06.44.08.66l.06.66c.02.22.03.43.04.65.01.22.02.39.03.59v.05c.08 1.38.01 2.74-.19 4.09z"/></g></switch></svg>