<svg xmlns="http://www.w3.org/2000/svg" viewBox="0 0 250 250" style="enable-background:new 0 0 250 250" xml:space="preserve"><switch><g><path d="M128.91 137.78c41.34-5.08 73.07-23.71 70.87-41.61-2.2-17.91-37.49-28.31-78.84-23.23-41.34 5.08-73.07 23.71-70.87 41.61 2.21 17.9 37.5 28.3 78.84 23.23z" style="fill-rule:evenodd;clip-rule:evenodd;fill:#FFF"/><path d="M206.84 95.21c-1.47-11.94-12.64-20.91-28.14-26.2-15.65-5.34-36.44-7.22-58.7-4.48-22.26 2.73-41.98 9.58-55.87 18.55-13.75 8.88-22.43 20.29-20.96 32.23 1.47 11.94 12.64 20.91 28.14 26.2 5.04 1.72 10.62 3.07 16.61 4.04 7.5 24.52 21.46 41.04 38.67 42.25 21.56 1.51 41.7-21.75 51.47-55.85 2.77-1.43 5.39-2.93 7.82-4.5 13.75-8.89 22.43-20.3 20.96-32.24zm-61.91 76.58c-4.62.98-6.56.65-11.33.49-8.14-.28-15.5-3.75-15.84-5.36-.54-2.56 12.48-2.65 25-5.31 12.52-2.66 19.59-13.39 20.13-10.83.55 2.55-5.44 18.35-17.96 21.01zm38.61-47.98c-2.37 1.53-4.93 2.99-7.65 4.39-12.5 6.41-28.55 11.31-46.41 13.51l.26 2.14-.26-2.14c-15.56 1.91-30.27 1.49-42.84-.76-5.01-.9-9.69-2.07-13.94-3.52-15.07-5.14-24.1-13.27-25.25-22.65-1.15-9.37 5.65-19.45 19.02-28.08 13.24-8.54 32.31-15.22 54.06-17.9 21.76-2.67 41.88-.8 56.79 4.28 15.07 5.14 24.1 13.27 25.25 22.65 1.14 9.38-5.65 19.45-19.03 28.08z" style="fill:#FFF"/><path d="M192.44 76.92c1.1 4.72 1.67 10.76 1.67 18.37 0 15.14-1.96 25.22-5.71 31.66-3.88 6.67-9.54 9.25-16.08 9.69-6.21.42-13.37-1.08-20.67-2.61l-.4-.08c-7.56-1.58-15.43-3.21-23.32-3.21-7.59 0-15.2 3.15-22.54 7.22-3.45 1.92-6.78 4-9.99 6.01-.18.11-.37.23-.55.34-3.35 2.09-6.59 4.11-9.59 5.65-2.98 1.53-5.93 2.7-8.68 2.96-2.87.27-5.59-.45-7.79-2.69-2.09-2.13-3.52-5.43-4.44-9.88-.93-4.49-1.41-10.39-1.41-17.98 0-15.13 1.6-25.59 4.68-32.69 3.15-7.26 7.86-11.02 13.76-12.6 5.68-1.52 12.33-.98 19.27-.16 1.24.15 2.49.3 3.75.46 5.97.75 12.25 1.53 18.84 1.53 7.7 0 15.73-2.72 23.66-6.07 2.45-1.03 4.91-2.14 7.35-3.24 5.26-2.36 10.39-4.67 14.96-6.05 6.71-2.03 13.38-2.46 18.17 2.66 2.3 2.46 3.96 6 5.06 10.71zm-43.86-.1c-8.01 3.38-16.72 6.41-25.34 6.41-6.89 0-13.48-.83-19.46-1.57-1.24-.16-2.46-.31-3.65-.45-7.02-.83-12.87-1.24-17.65.04-4.56 1.22-8.27 4.03-10.92 10.15-2.73 6.28-4.32 16.03-4.32 30.98 0 7.45.47 13.02 1.32 17.1.86 4.12 2.05 6.47 3.3 7.74 1.14 1.16 2.49 1.59 4.31 1.42 1.93-.18 4.29-1.05 7.13-2.51 2.81-1.44 5.9-3.35 9.27-5.47l.57-.36c3.19-1.99 6.61-4.13 10.16-6.11 7.51-4.17 15.91-7.76 24.63-7.76 8.41 0 16.71 1.73 24.21 3.3 7.63 1.6 14.29 2.99 19.89 2.62 5.39-.36 9.62-2.35 12.65-7.56 3.16-5.43 5.12-14.56 5.12-29.5 0-7.43-.56-13.11-1.56-17.39-1-4.29-2.41-7.03-4.01-8.73-2.99-3.19-7.39-3.41-13.78-1.48-4.31 1.3-9 3.41-14.1 5.71-2.49 1.12-5.08 2.28-7.77 3.42z" style="fill-rule:evenodd;clip-rule:evenodd;fill:#FFF;fill-opacity:.1018"/></g></switch></svg>