<svg version="1.1" id="Layer_1" xmlns="http://www.w3.org/2000/svg" x="0" y="0" viewBox="0 0 250 250" style="enable-background:new 0 0 250 250" xml:space="preserve"><style>.st0{fill:#FFF}</style><switch><g><path class="st0" d="M101.3 186.54a3.521 3.521 0 0 1-1.17-2.29l-6.62-70.4h23.55v78.87c0 3.01-3.55 4.61-5.8 2.62l-9.96-8.8zM117.08 101.22l-24.94-2.15-3.9-41.47a3.495 3.495 0 0 1 3.48-3.82h21.87c1.93 0 3.49 1.56 3.49 3.49v43.95zM163.1 112.45h17.94c.96 0 1.75-.78 1.75-1.75v-10.29c0-1.03-.89-1.84-1.92-1.74l-16.66 1.63-1.11 12.15zM136.55 103v9.45H70.41c-.96 0-1.75-.78-1.75-1.75v-10.32c0-1.02.88-1.83 1.9-1.74l58.79 5.03c.11.01.21.01.32 0l6.88-.67zM143.93 195.1c-2.19 2.22-5.98.67-5.98-2.45V84.31h26.35l-9.17 98.31c-.07.8-.42 1.56-.99 2.13l-10.21 10.35zM137.95 57.27v9.18l28.18-1.76.66-7.09a3.495 3.495 0 0 0-3.48-3.82h-21.87c-1.93 0-3.49 1.57-3.49 3.49z"/><path class="st0" d="M117.07 82.91V67.9l-28.01-1.38 1.53 16.39h26.48zM118.47 82.91h70.62c.77 0 1.4-.63 1.4-1.4V65.99c0-.81-.68-1.45-1.48-1.39l-60.64 3.85-9.88-.49v14.95zM87.53 66.45l1.67 16.47H60.91c-.77 0-1.4-.63-1.4-1.4V66.54c0-.8.67-1.43 1.47-1.4l26.55 1.31z"/></g></switch></svg>