<svg version="1.1" id="Layer_1" xmlns="http://www.w3.org/2000/svg" x="0" y="0" viewBox="0 0 250 250" style="enable-background:new 0 0 250 250" xml:space="preserve"><style>.st0{fill:#FFF}</style><switch><g><path class="st0" d="m96.86 157.18-32.85 3.69 19.29-44.51-19.75-26.92 48.02-5.47 13.05-30 28.58 38.85 32.85-3.69-19.2 44.3 19.61 26.74-47.78 5.44-13.25 30.43-28.57-38.86zm13.65-2.95c-1.26.62-2.61 1.13-4 1.52l-1.26.34 18.52 25.18 6.57-15.12-1.19-.16c-6.47-.82-12.36-4.31-16.15-9.55l-1.85-2.55-.64.34zm-6.45-22.83L119 152.07c3.04 4.2 7.95 6.7 13.13 6.7.6 0 1.2-.03 1.79-.1l38.98-4.44-15.52-21.18a16.11 16.11 0 0 0-2.65-2.82l-.92-.76-11.11 25.1-19.33-25.59-19.31 2.42zm.65-25.16a16.23 16.23 0 0 0-13.15 9.68l-15.65 36.13 26.01-2.92c1.29-.14 2.55-.44 3.77-.89l1.12-.42L90.7 125.6l31.74-4.02 7.55-18.03-25.28 2.69zm24.56 18.23 11.76 15.57 7.17-16.2 3.15-7.13c2.36-5.34 1.69-11.57-1.78-16.27l-23.3-31.71-10.48 24.09a16.47 16.47 0 0 0-1.12 3.72l-.2 1.17 27.2-2.88-12.4 29.64zm28.57-24.69.46 1.1c2.52 6.03 2.46 12.9-.17 18.85l-1.27 2.86.62.42c1.17.79 2.28 1.7 3.29 2.72l.93.92 12.45-28.71-16.31 1.84zM77.1 95.37l9.91 13.52.73-.95c3.94-5.11 9.85-8.44 16.2-9.11l3.11-.33.06-.76c.1-1.56.37-3.12.79-4.64l.36-1.29-31.16 3.56z"/><path class="st0" d="M118.07 196.61c-20.62-1.99-39.15-12.72-51.28-29.72l8.31-.93c1.37 1.69 2.84 3.31 4.34 4.83 9.01 9.05 20.28 15.15 32.64 17.67l5.99 8.15zM135.37 188.92c13.38-2.16 25.53-8.42 35.2-18.13.86-.87 1.73-1.8 2.61-2.78l10.07-1.15c-12.09 16.98-30.59 27.73-51.21 29.74l3.33-7.68zM185.29 147.96c2.75-7.32 4.15-15.04 4.15-22.96 0-6.99-1.1-13.86-3.27-20.42l4.04-9.31c4.24 9.35 6.39 19.35 6.39 29.73 0 10.37-2.15 20.35-6.37 29.7l-4.94-6.74zM59.81 154.8c-4.25-9.38-6.42-19.39-6.42-29.8 0-10.47 2.18-20.54 6.49-29.95l4.93 6.73c-2.82 7.39-4.25 15.19-4.25 23.21 0 7.02 1.1 13.91 3.28 20.49l-4.03 9.32zM67.09 82.7c12.12-16.73 30.5-27.32 50.94-29.3l-3.34 7.68c-13.39 2.15-25.58 8.42-35.26 18.14-.73.73-1.46 1.52-2.19 2.32L67.09 82.7zM174.92 84.04a64.705 64.705 0 0 0-4.35-4.83c-8.99-9.04-20.25-15.14-32.58-17.66l-6-8.16c20.61 2 39.11 12.73 51.23 29.72l-8.3.93z"/></g></switch></svg>