<svg version="1.1" id="Layer_1" xmlns="http://www.w3.org/2000/svg" x="0" y="0" viewBox="0 0 250 250" style="enable-background:new 0 0 250 250" xml:space="preserve"><style>.st0{fill-rule:evenodd;clip-rule:evenodd;fill:#FFF}</style><switch><g><g id="Layer_x0020_1"><g id="_1578074839392"><path class="st0" d="M86.26 85c2.35-4.85 8.19-7.05 13.2-4.85s7.28 8.04 5.23 13.04c-11.98 26.47-24.12 52.93-35.95 79.48-2.28 5.08-8.27 7.36-13.35 5.16-5.08-2.28-7.36-8.27-5.16-13.35C62.07 137.93 74.2 111.47 86.18 85h.08zM130.93 85c2.35-4.85 8.19-7.05 13.2-4.85s7.28 8.04 5.23 13.04c-11.98 26.47-5.31 12.97-17.14 39.51-2.28 5.08-8.27 7.36-13.35 5.16-5.08-2.28-7.36-8.27-5.16-13.35 11.83-26.54 5.16-13.04 17.14-39.51h.08z"/><path d="M176.35 85c2.35-4.85 8.19-7.05 13.2-4.85s7.28 8.04 5.23 13.04c-11.98 26.47-24.12 52.93-35.95 79.48-2.28 5.08-8.27 7.36-13.35 5.16-5.08-2.28-7.36-8.27-5.16-13.35 11.83-26.54 23.96-53.01 35.95-79.48h.08z" style="opacity:.2;fill-rule:evenodd;clip-rule:evenodd;fill:#FFF"/><circle class="st0" cx="185.53" cy="89.4" r="10.09"/><circle class="st0" cx="149.66" cy="168.57" r="10.09"/></g></g></g></switch></svg>