<svg xmlns="http://www.w3.org/2000/svg" viewBox="0 0 250 250" style="enable-background:new 0 0 250 250" xml:space="preserve"><switch><g><path d="M106.68 80.68c-28.05 10.77-30.62 38.35-38.66 51.22-8.14 13.03-26.78 20.22-24.23 26.86 2.55 6.64 21.22-.49 35.99 3.75 14.59 4.19 34.96 22.96 63.01 12.2 14.29-5.49 24.64-16.78 29.4-30.15.51-1.44-.44-2.97-1.96-3.11-.94-.09-1.85.41-2.28 1.25a39.755 39.755 0 0 1-21.35 19.34c-15.95 6.12-33.4 1.32-44.12-10.74a39.67 39.67 0 0 1-6.16-9.3c-.45-.95-.88-1.91-1.26-2.91-.38-1-.71-2-1.01-3.01 8.43-3.93 18.16-8.09 29.19-12.33 10.81-4.15 20.66-7.52 29.42-10.21 5.93-1.82 11.36-3.34 16.27-4.57.35-.09.7-.18 1.05-.26.74-.18 1.5.21 1.78.93v.01c.16.42.3.85.45 1.27.97 2.75 1.7 5.52 2.18 8.3.21 1.22 1.54 1.88 2.63 1.29 4.03-2.16 7.71-4.27 11-6.3 12.27-7.55 19.07-13.96 17.67-17.59-1.39-3.63-10.73-3.84-24.9-1.25-4.5.82-9.5 1.93-14.88 3.3-.93.24-1.87.48-2.82.74-4.53 1.2-9.3 2.58-14.28 4.12-9.25 2.86-19.17 6.3-29.41 10.23-9.58 3.68-18.67 7.49-26.99 11.3-.1-16.13 9.65-31.39 25.6-37.51 9.66-3.71 19.87-3.4 28.81.09.88.35 1.88.11 2.53-.59 1.03-1.12.71-2.9-.62-3.63-12.51-6.75-27.75-8.22-42.05-2.74z" style="fill:#FFF"/></g></switch></svg>