<svg version="1.1" id="Layer_1" xmlns="http://www.w3.org/2000/svg" x="0" y="0" viewBox="0 0 250 250" style="enable-background:new 0 0 250 250" xml:space="preserve"><style>.st0{fill:#FFF}</style><switch><g><path class="st0" d="M125 43.36c-45.09 0-81.64 36.55-81.64 81.64s36.55 81.64 81.64 81.64 81.64-36.55 81.64-81.64S170.09 43.36 125 43.36zm0 158.18c-42.27 0-76.54-34.27-76.54-76.54S82.73 48.46 125 48.46s76.54 34.27 76.54 76.54-34.27 76.54-76.54 76.54z"/><path class="st0" d="M159.02 82.29c1.49-5.51-.94-12.28-6.86-12.14-11.38-.16-13.23 15.72-11.95 29.6l-12.06 10.29c-4.5-3.84-10.78-4.6-16.43-3.26-18.89 4.63-25.85 31.57-17.95 47.02-3.86 9.06-3.32 20.18 1.95 28.59 4.44 8.86 17.89 11.73 15.22 5.92-.63-.79-.63-.51-1.6-.61-12.62-.8-15.77-19.76-12.29-28.84 11.19 13.16 35.84 8.66 44.54-3.07 12.86-17.24 8.48-38.15 5.83-56.93 4.69-4.67 9.93-9.86 11.6-16.57zm-63.18 65.87c-6.43-25.07 15.02-45.35 28.82-35.14h.01c-11.97 9.48-21.8 21.47-28.83 35.14zm40.32 2.94c-7.44 13.23-29.56 16.13-37.84 2.81 2.41-7.1 6.1-13.68 10.89-19.41l.07-.02c5.42-6.46 11.33-12.46 17.69-17.98 2.85 8.78-4.18 20.65-12.42 20.07.49 7.75 12 1.72 14.24-1.38 5.38-5.88 5.87-16.67 2.03-22.1l9.84-8.28c2.05 23.55 3.45 30.51-4.5 46.29zm10.59-57.6c-2.05-22.04 6.55-19.89 7.65-18 2.96 6.03-4.89 16.12-7.65 18z"/></g></switch></svg>