<svg xmlns="http://www.w3.org/2000/svg" viewBox="0 0 250 250" style="enable-background:new 0 0 250 250" xml:space="preserve"><switch><g><path d="M66.29 57.9h117.42v63.8c0 9.49-2.24 24.43-10.35 38.32-8.19 14.02-22.26 26.79-48.36 32.07-26.1-5.27-40.17-18.05-48.36-32.07-8.11-13.9-10.35-28.83-10.35-38.33V57.9zm113.23 4.2v59.61c0 17.93-7.93 56.42-54.52 66.2-46.58-9.78-54.52-48.27-54.52-66.2V62.1h109.04z" style="fill-rule:evenodd;clip-rule:evenodd;fill:#FFF"/><path d="M166.1 77.63H83.9v27.06l55.85 45.86-5.22 4.29-50.63-41.57v8.58c0 17.93 9.85 45.31 41.1 50.52 26.57-4.43 37.67-24.89 40.4-41.95.06-.37-55.15-45.86-55.15-45.86h10.44l45.41 37.28V77.63z" style="fill:#FFF"/></g></switch></svg>