<svg xmlns="http://www.w3.org/2000/svg" viewBox="0 0 250 250" style="enable-background:new 0 0 250 250" xml:space="preserve"><switch><g><path d="M128.14 47.82a77.075 77.075 0 0 1 37.77 9.86A77.002 77.002 0 0 1 194 84.78c-5.32-.08-10.6.91-15.54 2.89a40.15 40.15 0 0 0-13.22 8.66 39.98 39.98 0 0 0-8.85 13.09 40.191 40.191 0 0 0-3.11 15.49c0 5.32 1.06 10.58 3.11 15.49s5.06 9.35 8.85 13.09a40.15 40.15 0 0 0 13.22 8.66 40.335 40.335 0 0 0 15.54 2.89c-7 11.49-16.9 20.95-28.69 27.43a77.236 77.236 0 0 1-38.55 9.53 77.176 77.176 0 0 1-65.88-39.33A77.075 77.075 0 0 1 51 124.23a77.115 77.115 0 0 1 10.56-38.26 77.178 77.178 0 0 1 66.58-38.15z" style="fill-rule:evenodd;clip-rule:evenodd;fill:#FFF"/><path d="M194 84.74c-5.32-.08-10.6.91-15.54 2.89a40.15 40.15 0 0 0-13.22 8.66 39.98 39.98 0 0 0-8.85 13.09c-2.05 4.91-3.11 10.17-3.11 15.49s1.06 10.58 3.11 15.49 5.06 9.35 8.85 13.09a40.15 40.15 0 0 0 13.22 8.66A40.335 40.335 0 0 0 194 165l-.24.39a54.537 54.537 0 0 1-28.02 13.45 54.647 54.647 0 0 1-30.83-4.02 54.544 54.544 0 0 1-23.63-20.19 54.575 54.575 0 0 1-8.77-29.81 54.536 54.536 0 0 1 32.69-49.81 54.59 54.59 0 0 1 58.79 9.78v-.05z" style="opacity:.33;fill-rule:evenodd;clip-rule:evenodd"/></g></switch></svg>