<svg version="1.1" id="Layer_1" xmlns="http://www.w3.org/2000/svg" x="0" y="0" viewBox="0 0 250 250" style="enable-background:new 0 0 250 250" xml:space="preserve"><style>.st0{fill:#FFF}</style><switch><g><path class="st0" d="M72.81 78.91c.86-1.1 1.76-2.16 2.67-3.22.04-.05.13-.06.17-.11.08-.1.22-.17.3-.27l.08-.1c.63-.6 1.3-1.25 2.08-1.82 2.59-2.06 5.49-3.68 8.59-4.82 9.63-3.45 20.35-1.32 28.75 6.79 11.73 11.24 10.68 29.37 1.32 41.41-11.84 17.95-32.19 43-4.02 65.44 5.07 4.04 8.82 7.36 24.77 12.07-10.43 1.97-20.11 1.36-30.87-1.46-7.62-4.4-19.59-13.81-23.67-26.53-6.16-19.28 10.84-48.1 19.06-59.19 11.28-15.37-6.97-31.99-20.41-13.43-7.03 9.67-19.31 37.05-15.05 57.36 2.49 11.52 5.82 19.91 19.02 31.44a64.393 64.393 0 0 1-7.13-5.02c-30.65-29.18-27.09-74.33-5.66-98.54z"/><path class="st0" d="M177.19 171.09c-.86 1.1-1.76 2.16-2.67 3.22-.04.05-.13.06-.17.11-.08.1-.21.17-.3.27l-.08.1c-.63.6-1.3 1.25-2.08 1.82a30.942 30.942 0 0 1-8.59 4.82c-9.63 3.45-20.35 1.32-28.75-6.79-11.73-11.24-10.68-29.37-1.32-41.41 11.84-17.95 32.19-43 4.02-65.44-5.07-4.04-8.82-7.36-24.78-12.07 10.43-1.97 20.11-1.36 30.88 1.45 7.62 4.4 19.59 13.81 23.67 26.53 6.16 19.28-10.84 48.1-19.06 59.19-11.28 15.37 6.97 31.99 20.41 13.43 7.03-9.67 19.31-37.05 15.05-57.36-2.5-11.52-5.82-19.91-19.02-31.44 2.44 1.48 4.82 3.15 7.13 5.03 30.64 29.18 27.09 74.33 5.66 98.54z"/></g></switch></svg>