<svg version="1.1" id="Layer_1" xmlns="http://www.w3.org/2000/svg" x="0" y="0" viewBox="0 0 250 250" style="enable-background:new 0 0 250 250" xml:space="preserve"><style>.st0{opacity:.34;fill:#FFF}</style><switch><g><path class="st0" d="M56.48 66.84v43.12l.01-1.71c.29 36.85 30.85 68.35 68.52 68.35s68.24-29.79 68.52-66.64l.01-1.71V66.84s-9.51-4.7-20.32 6.51c-6.94 7.2-12.49 33.06-27.36 33.29-19.85.31-33.35-26.43-49.51-36.43-16.84-10.43-39.87-3.37-39.87-3.37z"/><path class="st0" d="M56.48 66.84v43.12l.01-1.71c.29 36.85 30.85 68.35 68.52 68.35s68.24-29.79 68.52-66.64l.01-1.71V66.84s-9.51-4.7-20.32 6.51c-6.94 7.2-12.49 33.06-27.36 33.29-19.85.31-33.35-26.43-49.51-36.43-16.84-10.43-39.87-3.37-39.87-3.37z"/><path class="st0" d="m193.55 114.21.01-1.83V84.26c-3.87.65-8.63 2.57-13.66 7.28-7.79 7.29-14.01 33.46-30.68 33.69-22.26.31-37.41-26.75-55.52-36.86-12.58-7.02-28.2-6.22-37.26-4.89v30.74l.01-1.83c.29 39.42 30.86 73.11 68.55 73.11s68.26-31.87 68.55-71.29z"/><path class="st0" d="m193.55 114.21.01-1.83V84.26c-3.87.65-8.63 2.57-13.66 7.28-7.79 7.29-14.01 33.46-30.68 33.69-22.26.31-37.41-26.75-55.52-36.86-12.58-7.02-28.2-6.22-37.26-4.89v30.74l.01-1.83c.29 39.42 30.86 73.11 68.55 73.11s68.26-31.87 68.55-71.29z"/><path d="m193.55 114.46.01-1.83v-4.96c-2.96 1.15-6.19 2.98-9.53 5.88-8.38 7.29-15.08 33.46-33.03 33.69-23.96.31-40.27-26.75-59.77-36.86-11.32-5.87-24.94-6.27-34.81-5.46v9.55l.01-1.83c.29 39.42 30.86 73.11 68.55 73.11s68.28-31.87 68.57-71.29z" style="fill:#FFF"/></g></switch></svg>