<svg xmlns="http://www.w3.org/2000/svg" viewBox="0 0 250 250" style="enable-background:new 0 0 250 250" xml:space="preserve"><switch><g><path d="M128.13 199.22c-16.97 0-30.88-3.97-41.73-11.9-9.96-7.28-16.31-17.44-19.04-30.46-.42-1.99.76-3.93 2.59-4.44l23.48-6.56c2.03-.57 4.06.83 4.63 3 1.23 4.72 2.94 8.56 5.14 11.53 2.97 3.78 6.56 6.51 10.76 8.22 4.38 1.51 9.1 2.27 14.17 2.27 7.7 0 13.39-1.42 17.06-4.25 3.67-3.02 5.51-6.7 5.51-11.05 0-4.34-1.75-7.65-5.25-9.91-3.5-2.46-9.1-4.44-16.8-5.95l-7.35-1.42c-9.1-1.89-17.41-4.44-24.94-7.65-7.52-3.4-13.56-8.03-18.11-13.88-4.55-5.85-6.82-13.41-6.82-22.66 0-13.98 4.72-24.64 14.17-32.01 9.45-7.55 21.87-11.33 37.27-11.33 14.52 0 26.6 3.49 36.22 10.48 8.57 6.22 14.5 14.16 17.8 23.82.69 2.01-.41 4.16-2.31 4.79l-23.48 7.8c-2.05.68-4.17-.7-4.87-2.89-1.6-5.03-4.13-8.74-7.61-11.14-4.2-3.02-9.45-4.53-15.75-4.53-6.3 0-11.11 1.23-14.44 3.68-3.33 2.27-4.99 5.48-4.99 9.63 0 4.53 1.75 7.93 5.25 10.2 3.5 2.08 8.22 3.68 14.17 4.82l7.35 1.42c9.8 1.89 18.63 4.44 26.51 7.65 8.05 3.02 14.35 7.46 18.9 13.31 4.72 5.66 7.09 13.41 7.09 23.23 0 14.73-4.99 26.16-14.96 34.28-9.78 7.93-22.99 11.9-39.62 11.9z" style="fill:#FFF"/></g></switch></svg>