<svg version="1.1" id="Layer_1" xmlns="http://www.w3.org/2000/svg" x="0" y="0" viewBox="0 0 250 250" style="enable-background:new 0 0 250 250" xml:space="preserve"><style>.st1{fill:#FFF}</style><switch><g><path d="M125 206.15c44.82 0 81.15-36.33 81.15-81.15 0-44.82-36.33-81.15-81.15-81.15-44.82 0-81.15 36.33-81.15 81.15 0 44.82 36.33 81.15 81.15 81.15zm0 4.51c47.31 0 85.66-38.35 85.66-85.66 0-47.31-38.35-85.66-85.66-85.66-47.31 0-85.66 38.35-85.66 85.66 0 47.31 38.35 85.66 85.66 85.66z" style="fill-rule:evenodd;clip-rule:evenodd;fill:#FFF"/><path class="st1" d="M125 52.87c-39.84 0-72.13 32.29-72.13 72.13s32.29 72.13 72.13 72.13c39.84 0 72.13-32.29 72.13-72.13S164.84 52.87 125 52.87zm50.6 105.92a60.893 60.893 0 0 1-27.31 22.42 60.807 60.807 0 0 1-35.16 3.46 60.79 60.79 0 0 1-31.16-16.66 60.902 60.902 0 0 1-16.66-31.16 60.882 60.882 0 0 1 3.46-35.16 60.84 60.84 0 0 1 22.42-27.31A60.857 60.857 0 0 1 125 64.12c16.14 0 31.62 6.41 43.03 17.83a60.864 60.864 0 0 1 17.83 43.03 61.017 61.017 0 0 1-10.26 33.81z"/><path class="st1" d="M94.38 99.73c-3.48 0-6.81 1.38-9.27 3.84a13.101 13.101 0 0 0-3.84 9.27v24.26c0 3.48 1.38 6.81 3.84 9.27s5.79 3.84 9.27 3.84 6.81-1.38 9.27-3.84 3.84-5.79 3.84-9.27v-10.11h-9.34l9.34-9.34v-4.81c0-3.48-1.38-6.81-3.84-9.27a13.143 13.143 0 0 0-9.27-3.84zM155.6 99.73c-3.48 0-6.81 1.38-9.27 3.84a13.101 13.101 0 0 0-3.84 9.27v24.26c0 3.48 1.38 6.81 3.84 9.27s5.79 3.84 9.27 3.84c3.48 0 6.81-1.38 9.27-3.84s3.84-5.79 3.84-9.27v-10.11h-9.34l9.34-9.34v-4.81c0-3.48-1.38-6.81-3.84-9.27a13.084 13.084 0 0 0-9.27-3.84z"/></g></switch></svg>