<svg version="1.1" id="Layer_1" xmlns="http://www.w3.org/2000/svg" x="0" y="0" viewBox="0 0 250 250" style="enable-background:new 0 0 250 250" xml:space="preserve"><style>.st0{fill:#FFF}</style><switch><g><path class="st0" d="M194.08 158.46h-.96c-2.41 2.89-5.78 4.81-9.15 6.26h-.48c-2.89 1.44-6.26 1.93-9.63 1.93-4.81.48-9.63-.96-14.44-2.89h-.96c-4.33-2.41-7.7-5.78-10.11-9.63v-.96l-9.15 9.15s-1.93 9.15-2.41 13.96h.48c9.15 10.11 22.63 16.37 36.59 16.37h1.44c9.15 0 17.81-2.41 26-6.74 4.33-2.41 8.18-4.81 12.04-8.18h.48l-19.74-19.27zM64.11 112.72l3.85 13.96.96-.96c3.85-5.78 10.11-10.11 16.85-11.07h.48c2.41-.48 4.81-.96 7.7-.96 3.85.48 7.7 1.44 11.07 3.37 4.81 2.41 8.67 5.78 12.04 10.11l.96.96 8.67-12.52 2.41-13-.96-.96c-5.78-5.3-12.52-9.15-19.74-11.55-3.85-1.44-8.18-1.93-12.52-2.41h-.48c-9.63 0-18.78 2.41-26.96 7.22l-3.85 16.37-.48 1.44z"/><path class="st0" d="M146.43 148.83v-8.67c0-6.26 1.93-12.03 5.78-16.85h.48l1.44-1.93c5.3-5.3 12.04-8.18 19.74-8.18h3.85c5.78.96 11.55 3.85 15.89 7.7h-.48l18.77-18.78h-.96c-9.15-9.15-21.66-14.92-34.66-15.41h-3.85c-7.7 0-15.41 1.44-23.11 4.33-4.81 1.93-9.15 5.3-12.52 8.67h-.96l-3.85 4.33-2.89 13-10.11 13.48v9.63c0 10.59-6.26 20.22-15.89 24.55-14.44 6.26-30.81-.48-37.07-14.92-1.44-2.89-1.93-6.26-2.41-9.63V131l-4.81-19.26 4.33-17.81v-27.9l-26.96-9.15.96 62.1v21.66c0 .96 0 1.44.48 2.41h.48c.96 15.41 8.18 29.37 20.22 38.51 10.11 7.7 22.15 11.55 34.66 11.55h2.41c12.52 0 25.03-4.81 34.18-13l3.85-4.33 2.89-15.41 10.12-11.54z"/></g></switch></svg>