<svg xmlns="http://www.w3.org/2000/svg" viewBox="0 0 250 250" style="enable-background:new 0 0 250 250" xml:space="preserve"><switch><g><path d="M141.88 64.38c9.35 5.82 18.74 13.35 26.32 21.94 15.98 13.96 28.51 32.41 26.05 51.58-2.04 15.62-16.14 37.12-49.87 50.62-5.07 2.05-10.29 3.72-15.61 5.01h-.01c-.78.36-1.56.71-2.34 1.01-11.96 4.75-23.71 7.28-33.94 7.28-9.04 0-16.45-2.02-21.41-5.82-10.86-8.29-16.08-29.53-15.61-63.16.47-32.16 4.75-52.08 13.37-61.69 2.98-10.01 7.26-16.54 12.95-19.92 11.75-7.03 36.45-1.61 60.1 13.15zM89.15 184.73c.78.86 1.56 1.57 2.4 2.23 7.31 5.56 20.57 6.47 35.93 2.88 19.89-8.49 32.22-19.77 38.84-30.54-7.78 7.18-18.22 13.95-31.85 19.42-11.96 4.75-23.7 7.28-33.94 7.28-4.18-.01-7.99-.46-11.38-1.27zm-3.76-5.41c10.55 4.85 28.51 3.39 47.57-4.25 18.64-7.48 30.96-17.39 38.37-27.2.42-1.57.73-3.03.89-4.45 3.03-23.62-18.96-46.47-40.57-59.97-15.04-9.4-30.28-14.91-41.88-15.63-7.78 8.85-11.8 28.27-12.27 59.07-.37 24.57 2.3 42.11 7.89 52.43zm91.16-39.85c2.09-4.15 3.29-8.19 3.76-11.89 1.72-13.6-4.86-27-14.83-38.38a119.95 119.95 0 0 0-15.77-11.68c-15.71-9.8-32.31-15.67-44.48-15.67-4.7 0-8.51.86-11.33 2.53l-.1.05c11.8 1.57 26.11 7.03 40.05 15.73 21.3 13.3 42.97 35.55 42.7 59.31zm-91.84-71.6c-3.5.25-6.48 1.06-8.82 2.48a16.54 16.54 0 0 0-3.39 2.68c-3.03 10.52-4.65 25.13-4.91 43.99-.42 29.33 3.45 48.7 11.49 57.65-4.02-11.18-5.9-27.15-5.59-47.84.41-29.38 4.01-48.54 11.22-58.96zM88 63.98c1.13-1.12 2.39-2.11 3.76-2.93 9.45-5.71 27.47-3.24 46.58 5.77C123.04 57.51 107.06 52 95.32 52c-4.7 0-8.51.86-11.33 2.58-3.66 2.17-6.74 6.12-9.14 11.88 3.49-1.78 7.98-2.59 13.15-2.48zm-8.83 116.15c-10.86-8.29-16.13-29.53-15.61-63.16.16-12.84.99-23.77 2.45-32.87-4.02 10.72-6.16 26.85-6.47 48.75-.47 32.36 4.23 52.54 14.04 60.07 7.26 5.51 20.47 6.47 35.77 2.88-8.51-.2-15.51-2.17-20.26-5.81-2.51-1.92-4.7-4.5-6.58-7.74-1.2-.66-2.29-1.36-3.34-2.12zm105.11-52.04c-.84 6.47-3.71 13.96-9.24 21.44-2.92 10.16-10.7 21.94-24.96 32.21 26.84-12.84 38.38-30.95 40.1-44.29 1.41-10.77-2.46-21.44-9.14-31.1 2.87 6.98 4.18 14.31 3.24 21.74z" style="fill-rule:evenodd;clip-rule:evenodd;fill:#FFF"/></g></switch></svg>