<svg version="1.1" id="Layer_1" xmlns="http://www.w3.org/2000/svg" x="0" y="0" viewBox="0 0 250 250" style="enable-background:new 0 0 250 250" xml:space="preserve"><style>.st0{fill:#FFF}</style><switch><g><path class="st0" d="M119.9 104a20.996 20.996 0 0 0-21 21 20.996 20.996 0 0 0 21 21 20.996 20.996 0 0 0 21-21c0-5.57-2.21-10.91-6.15-14.85A21.038 21.038 0 0 0 119.9 104z"/><path class="st0" d="M119.91 41.02a83.837 83.837 0 0 0-32.15 6.37 83.71 83.71 0 0 0-27.24 18.22l29.71 29.71a42.008 42.008 0 0 1 21.5-11.51c8.15-1.62 16.59-.8 24.27 2.38a41.98 41.98 0 0 1 25.93 38.79c0 8.31-2.46 16.43-7.08 23.33A41.956 41.956 0 0 1 136 163.77c-7.68 3.18-16.12 4-24.27 2.38a41.935 41.935 0 0 1-21.5-11.51l-29.71 29.71a84.095 84.095 0 0 0 35 20.98 84.006 84.006 0 0 0 40.76 2 83.989 83.989 0 0 0 36.89-17.45 84.068 84.068 0 0 0 24.31-32.78 83.96 83.96 0 0 0 5.99-40.37 83.84 83.84 0 0 0-13.75-38.42 84.045 84.045 0 0 0-30.23-27.41 84.392 84.392 0 0 0-39.58-9.88z"/></g></switch></svg>