<svg version="1.1" id="Layer_1" xmlns="http://www.w3.org/2000/svg" x="0" y="0" viewBox="0 0 250 250" style="enable-background:new 0 0 250 250" xml:space="preserve"><style>.st0,.st1{fill:#FFF}.st1{opacity:.2}</style><switch><g><path class="st0" d="M161.95 64.82c2.2.88 5.07 2.42 8.59 4.73 4.18 2.75 7.82 5.84 10.13 8.26-3.85 5.07-6.39 12-7.93 16.85.77 1.1 1.65 2.2 2.42 3.3.77-2.75 2.09-6.83 3.86-10.9.44.11.99.11 1.54.11 1.32 0 2.86-.22 4.08-1.21.88-.66 1.87-1.87 1.76-4.07 0-2.09-1.65-4.74-5.07-7.93-2.42-2.31-5.73-4.85-9.03-7.16-9.47-6.28-16.08-8.04-19.05-5.07-1.98 1.98-1.76 4.41-1.1 6.17-3.52 2.31-6.5 3.97-8.48 5.07 1.32.44 2.53.99 3.85 1.54 3.52-1.87 8.59-5.06 14.43-9.69zm20.81 15.75c.33.55.44 1.1.44 1.43 0 .99-.33 1.32-.55 1.54-.44.33-1.32.55-2.09.55.66-1.32 1.43-2.42 2.2-3.52zm-27.2-16.41c.33-.33 1.21-.55 2.64-.33-1.1.88-2.2 1.65-3.3 2.42-.11-.77 0-1.54.66-2.09z"/><path class="st0" d="M120.86 68.89c-36.01 0-65.2 29.19-65.2 65.2 0 36.02 29.19 65.2 65.2 65.2 36.02 0 65.2-29.19 65.2-65.2 0-36.01-29.3-65.2-65.2-65.2zm0 126.77c-34.03 0-61.57-27.53-61.57-61.57 0-34.03 27.54-61.57 61.57-61.57s61.57 27.54 61.57 61.57c0 34.04-27.65 61.57-61.57 61.57z"/><path class="st0" d="M140.04 106.32c5.48 0 9.91-4.44 9.91-9.91 0-5.48-4.44-9.91-9.91-9.91s-9.91 4.44-9.91 9.91c-.01 5.48 4.43 9.91 9.91 9.91zm16.19 7.38c2.31 0 4.18-1.87 4.18-4.18 0-2.31-1.88-4.19-4.18-4.19a4.18 4.18 0 0 0-4.18 4.19c-.01 2.31 1.87 4.18 4.18 4.18z"/><path class="st0" d="M157.87 50.38c6.17 0 13.77 2.97 20.82 8.15 8.92 6.5 13.88 12.22 15.42 18.17.88 3.41.11 7.27-2.09 10.13-2.31 2.97-5.73 4.62-9.8 4.62-1.43 0-2.97-.22-4.62-.66-.99 2.53-1.76 5.07-2.31 7.49a65.151 65.151 0 0 1 10.68 35.8c0 36.02-29.19 65.2-65.2 65.2-36.02 0-65.09-29.19-65.09-65.2s29.19-65.2 65.2-65.2c7.93 0 15.53 1.43 22.58 4.08 1.32-.66 2.97-1.54 4.85-2.64-.66-.99-1.32-1.98-1.65-2.97-1.21-2.97-.77-7.6 1.1-11.13 1.54-2.86 3.85-4.85 6.72-5.51.97-.22 2.18-.33 3.39-.33zm0-1.87c-1.32 0-2.64.11-3.85.44-3.31.77-6.17 2.97-8.04 6.5-2.09 4.08-2.64 9.36-1.21 12.78.22.44.44.99.77 1.54-.77.44-1.54.88-2.31 1.21-7.27-2.53-14.76-3.85-22.47-3.85-9.03 0-17.84 1.76-26.1 5.29a67.27 67.27 0 0 0-21.37 14.43 66.8 66.8 0 0 0-14.43 21.35c-3.53 8.26-5.29 17.07-5.29 26.1 0 9.03 1.76 17.84 5.29 26.1a67.27 67.27 0 0 0 14.43 21.37 67.27 67.27 0 0 0 21.37 14.43c8.26 3.53 17.07 5.29 26.1 5.29 9.03 0 17.84-1.76 26.11-5.29a67.27 67.27 0 0 0 21.37-14.43 67.27 67.27 0 0 0 14.43-21.37c3.53-8.26 5.29-17.07 5.29-26.1 0-12.89-3.64-25.33-10.57-36.12.33-1.65.88-3.3 1.43-4.96 1.1.22 2.31.33 3.42.33 4.62 0 8.7-1.87 11.34-5.4 2.53-3.3 3.52-7.93 2.42-11.78-1.76-6.39-6.83-12.45-16.19-19.17-7.4-5.61-15.44-8.69-21.94-8.69z"/><path class="st0" d="M62.28 133.53c0 .14.01.27.01.41 0-.14.02-.27.03-.41h-.04z"/><path class="st1" d="M62.28 134.08c0 .12.02.25.02.37 0-.17-.01-.34-.01-.51 0 .05-.01.09-.01.14z"/><path class="st0" d="M179.22 133.48c.02.18.03.36.03.55 0 5.95-9.91 5.84-21.26 9.58-10.46 3.53-19.6 8.7-37.34 11.23-34.65 4.9-57.86-9.05-58.35-20.44.5 31.85 26.61 57.56 58.57 57.56 32.27 0 58.48-26.21 58.48-58.48h-.13z"/><path class="st1" d="M120.66 154.85c17.73-2.53 26.87-7.71 37.34-11.23 11.34-3.74 21.26-3.63 21.26-9.58 0-.19-.01-.37-.03-.55-.62-6.38-12.07-10.06-27.17-11.35-11.23-.88-22.58.22-35.58 4.19-11.23 3.3-21.37 2.75-28.75 1.87-16.01-1.83-24.97-2.06-25.4 5.29-.01.14-.03.27-.03.41 0 .17.01.34.01.51.49 11.38 23.7 25.34 58.35 20.44z"/></g></switch></svg>