<svg version="1.1" id="Layer_1" xmlns="http://www.w3.org/2000/svg" x="0" y="0" viewBox="0 0 250 250" style="enable-background:new 0 0 250 250" xml:space="preserve"><style>.st0{fill:#FFF}</style><switch><g><path class="st0" d="M177.71 136.62c-.4 1.57-.88 3.11-1.42 4.62.71-1.43 1.19-2.98 1.42-4.62zM100.15 77.46c7.39-3.81 15.76-6.03 24.63-6.03 9.09.01 17.79 2.35 25.46 6.43a54.97 54.97 0 0 1 9.1-9.99c2.94-2.49 5.86-4.43 8.78-5.96C155.62 53.14 140.41 48 124 48c-16.41 0-31.58 5.25-44.05 14.07 4.32 1.75 8.64 4.21 12.99 7.91 1.99 1.72 4.57 4.17 7.21 7.48zM55.13 83.94c1.7 8.51 4.04 16.89 9.29 24.02 2.56 3.47 5.09 6.79 5.66 11.15 0 .03.08.08.13.11 1.35-2.5 1.86-5.31 2.96-7.89 4.36-10.21 10.8-18.91 19.39-26.1 1.13-.94 2.67-1.54 3.21-3.1C85.14 70.1 71.83 62.48 55.91 59.19c-2.37-.48-3.02 0-2.96 2.4.19 7.51.7 14.97 2.18 22.35zM156.39 81.96c.51 1.56 2.07 2.15 3.21 3.12 8.54 7.24 14.92 15.97 19.23 26.21 1.1 2.61 1.59 5.39 2.91 7.89.05-.03.13-.08.13-.11.59-4.36 3.12-7.65 5.71-11.12 5.28-7.11 7.68-15.46 9.43-23.97 1.54-7.35 2.1-14.84 2.32-22.33.08-2.4-.57-2.91-2.96-2.42-15.92 3.21-29.26 10.75-39.98 22.73z"/><circle class="st0" cx="166.63" cy="127.32" r="4.58"/><path class="st0" d="M198.56 105.8c-6.98 12.84-19 20.82-19.16 21.02 0 .03 0 .05-.05.08-.03 0-.08.03-.11.05-3.22-6.18-9.68-10.41-17.14-10.41-10.67 0-19.31 8.65-19.31 19.31s8.65 19.31 19.31 19.31c2.8 0 5.45-.6 7.86-1.67-4.76 6.9-11.05 12.64-18.15 16.64-.82 2.83-2.38 5.43-4.41 7.44-2.07 2.05-4.28 3.12-6.38 3.85-.1.43-.2.78-.27 1.03-1.89 4.17-5.79 6.95-9.91 6.95-5.66 0-8.83-5.12-9.88-6.88-2.48-.75-4.97-1.94-7.3-3.78-.89-.69-3.53-2.78-5.5-5.99-19.89-7.44-36.28-25.33-37.72-46.26-3.84-4-11.35-12.53-16.14-22.98-.59-1.28-1.43-3.13-2.27-5.5A75.485 75.485 0 0 0 47.04 125c.03 49.45 48.64 77.97 80.45 76.97.86-.03 2.99-.11 5.87-.54 29.2-4.34 67.63-32.94 67.63-76.44-.02-6.62-.86-13.05-2.43-19.19zm-20.85 30.82c-.23 1.64-.72 3.19-1.42 4.62-2.5 5.06-7.7 8.54-13.72 8.54-2.53 0-4.92-.62-7.03-1.71.15-.27.26-.57.32-.89.24-1.45-.75-2.82-2.2-3.06-.88-.14-1.73.16-2.31.75a15.23 15.23 0 0 1-4.07-10.39c0-8.45 6.85-15.3 15.3-15.3 8.45 0 15.3 6.85 15.3 15.3-.02.73-.07 1.44-.17 2.14z"/><path class="st0" d="M152.28 163.16c-.48-2.94-1.7-4.96-3.15-7.22-3.72-5.93-7.16-7.3-9.86-10.32-8.83-9.86-2.77-29.57-8.27-36.39-.48-.59-1.83-2.26-3.58-2.24-1.8.03-3.12 1.8-3.58 2.45-5.09 6.98 2.91 25.94-4.87 36.06-3.26 4.23-7.22 4.26-10.72 10.83-1 1.91-2.61 5.01-2.45 9 .11 2.87 1.11 5.36 2.36 7.39 1.98 3.21 4.61 5.3 5.5 5.99 2.33 1.84 4.82 3.03 7.3 3.78 7.87 2.37 15.59.22 17.48-.31.83-.23 1.7-.48 2.58-.78 2.11-.73 4.32-1.8 6.38-3.85 2.03-2 3.58-4.6 4.41-7.44.65-2.21.85-4.59.47-6.95zm-31.33-1.96c.08-.89.67-1.56.81-1.7.67-.7 1.59-.94 3.15-1.32.22-.05.51-.13.92-.19 3.96-.73 8.3-.22 8.3-.22.86.11 1.78.24 2.75.46.75.16 1.48.35 2.13.54.78.19 1.4.73 1.62 1.45.24.83-.16 1.54-.22 1.67-1 1.8-2.15 3.02-2.96 3.72-.97.86-2.1 1.86-3.8 2.24-1.05.24-2.1.19-2.34.19-.27-.03-.94-.08-1.83-.27-2.5-.57-4.55-1.94-4.69-2.05-1.82-1.21-4-2.69-3.84-4.52z"/><circle class="st0" cx="98.17" cy="128.31" r="4.58"/><path class="st0" d="M93.67 117.54c-10.67 0-19.31 8.65-19.31 19.31 0 10.67 8.65 19.31 19.31 19.31s19.31-8.65 19.31-19.31c0-10.66-8.64-19.31-19.31-19.31zm.46 33.24c-2.11 0-4.12-.43-5.95-1.2.34-.45.54-1 .54-1.6a2.67 2.67 0 0 0-5-1.3 15.237 15.237 0 0 1-4.89-11.21c0-8.45 6.85-15.3 15.3-15.3s15.3 6.85 15.3 15.3c0 8.46-6.85 15.31-15.3 15.31z"/></g></switch></svg>