<svg xmlns="http://www.w3.org/2000/svg" viewBox="0 0 250 250" style="enable-background:new 0 0 250 250" xml:space="preserve"><switch><g><path d="M124.99 44.1c-44.68 0-80.88 36.22-80.88 80.9 0 44.68 36.22 80.9 80.88 80.9s80.9-36.22 80.9-80.88-36.22-80.92-80.9-80.92zm0 117.41a36.484 36.484 0 0 1-33.72-22.53 36.514 36.514 0 0 1-2.08-21.09 36.534 36.534 0 0 1 9.99-18.69c5.11-5.1 11.61-8.58 18.69-9.99 7.08-1.41 14.42-.69 21.09 2.08a36.44 36.44 0 0 1 16.38 13.45c4.01 6 6.15 13.06 6.15 20.28a36.534 36.534 0 0 1-36.5 36.49zM53.05 125c0-38.17 29.88-69.48 67.46-71.8v26.56A45.443 45.443 0 0 0 91.4 94.53 45.54 45.54 0 0 0 79.7 125a45.5 45.5 0 0 0 11.71 30.47 45.443 45.443 0 0 0 29.11 14.77v26.56c-37.59-2.31-67.48-33.62-67.48-71.79l.01-.01zm76.41 71.8v-26.56a45.443 45.443 0 0 0 29.11-14.77c7.54-8.36 11.71-19.21 11.71-30.47s-4.17-22.11-11.71-30.47a45.443 45.443 0 0 0-29.11-14.77V53.21c37.59 2.32 67.46 33.63 67.46 71.8s-29.86 69.47-67.46 71.79z" style="fill:#FFF"/></g></switch></svg>