<svg version="1.1" id="Layer_1" xmlns="http://www.w3.org/2000/svg" x="0" y="0" viewBox="0 0 250 250" style="enable-background:new 0 0 250 250" xml:space="preserve"><style>.st0{fill:#FFF}</style><switch><g><path class="st0" d="M125.67 98.15c-12.6 0-22.54 8.29-25.2 20.22H89.53v8.62h10.28c1.33 13.59 12.27 23.54 25.86 23.54 10.28 0 18.9-3.98 22.54-10.94l-9.28-5.97c-2.32 3.98-7.63 6.3-13.26 6.3-7.96 0-13.59-4.97-14.92-12.93h46.42l2.98-8.62h-10.61c-1.66-11.6-11.61-20.22-23.87-20.22zm-14.26 20.22c1.99-6.63 6.63-10.61 13.59-10.61s11.94 4.31 12.6 10.61h-26.19zM108.87 180.39l-3.34 11.46c-36.93-10.75-58.14-49.39-47.39-86.31l11.46 3.34c-8.89 30.55 8.71 62.61 39.27 71.51zm35.59-122.24-3.34 11.46c30.56 8.9 48.16 40.96 39.26 71.52l11.46 3.34c10.76-36.93-10.45-75.57-47.38-86.32z"/></g></switch></svg>