<svg version="1.1" id="Layer_1" xmlns="http://www.w3.org/2000/svg" x="0" y="0" viewBox="0 0 250 250" style="enable-background:new 0 0 250 250" xml:space="preserve"><style>.st0{fill:#FFF}</style><switch><g><path class="st0" d="M119.87 160.94c0-2.38-.95-4.67-2.63-6.35a8.993 8.993 0 0 0-6.35-2.63c-2.38 0-4.67.95-6.35 2.63a8.993 8.993 0 0 0-2.63 6.35c0 2.38.95 4.67 2.63 6.35a9.01 9.01 0 0 0 6.35 2.63c2.38 0 4.67-.95 6.35-2.63a9.01 9.01 0 0 0 2.63-6.35zM123.58 181.47a7.071 7.071 0 0 0-7.06 7.06 7.071 7.071 0 0 0 7.06 7.06 7.071 7.071 0 0 0 7.06-7.06c0-1.87-.74-3.66-2.07-4.99a7.089 7.089 0 0 0-4.99-2.07zM115.52 140.08a6.139 6.139 0 0 0 1.8-4.34c0-1.63-.65-3.19-1.8-4.34a6.139 6.139 0 0 0-4.34-1.8c-1.63 0-3.19.65-4.34 1.8a6.139 6.139 0 0 0-1.8 4.34c0 1.63.65 3.19 1.8 4.34a6.139 6.139 0 0 0 4.34 1.8c1.63 0 3.19-.64 4.34-1.8zM125.89 166.07c-1.26 0-2.46.5-3.35 1.39a4.73 4.73 0 0 0 0 6.7 4.73 4.73 0 0 0 6.7 0 4.73 4.73 0 0 0 0-6.7 4.73 4.73 0 0 0-3.35-1.39z"/><path class="st0" d="M184.95 58.92a15.333 15.333 0 0 0-10.85-4.49H75.89c-4.07 0-7.97 1.62-10.85 4.49a15.333 15.333 0 0 0-4.49 10.85c0 4.07 1.62 7.97 4.49 10.85 2.88 2.88 6.78 4.49 10.85 4.49h30.69v35.64c0 1.73 1.78 2.93 3.5 2.79 2.5-.22 5.01.33 7.18 1.58a12.28 12.28 0 0 1 2.66 19.25c-1.42 1.45-1.47 4.13.5 4.63 2.46.62 5.01.74 7.52.34 1.61-.25 2.19-2.15 1.71-3.72a9.81 9.81 0 0 1-.43-2.89v-1.65c0-1.59.38-3.16 1.11-4.58.73-1.41 1.8-2.63 3.1-3.55s2.81-1.5 4.39-1.71c1.58-.21 3.19-.04 4.68.51.43.16.89-.12.89-.58V85.11h30.7c4.07 0 7.97-1.62 10.85-4.49 2.88-2.88 4.49-6.78 4.49-10.85.02-4.07-1.6-7.97-4.48-10.85z"/><path class="st0" d="M140.55 146.13c.56-.23 1.07-.57 1.49-1 .43-.43.77-.94 1-1.49.23-.56.35-1.16.35-1.76 0-.6-.12-1.2-.35-1.76-.23-.56-.57-1.07-1-1.49-.43-.43-.94-.77-1.49-1-.56-.23-1.16-.35-1.76-.35-1.22 0-2.39.48-3.25 1.35-.86.86-1.35 2.03-1.35 3.25 0 1.22.48 2.39 1.35 3.25.86.86 2.03 1.35 3.25 1.35.61 0 1.21-.11 1.76-.35zM138.97 172.99c-1.19 0-2.33.47-3.18 1.32a4.488 4.488 0 0 0 0 6.36 4.488 4.488 0 0 0 6.36 0 4.488 4.488 0 0 0 0-6.36 4.471 4.471 0 0 0-3.18-1.32zM137.06 152.45c-1.7 0-3.33.68-4.54 1.88a6.435 6.435 0 0 0-1.88 4.54c0 1.7.68 3.33 1.88 4.54 1.2 1.2 2.84 1.88 4.54 1.88 1.7 0 3.33-.68 4.54-1.88 1.2-1.2 1.88-2.84 1.88-4.54 0-1.7-.68-3.33-1.88-4.54a6.453 6.453 0 0 0-4.54-1.88z"/></g></switch></svg>