<svg version="1.1" id="Layer_1" xmlns="http://www.w3.org/2000/svg" x="0" y="0" viewBox="0 0 250 250" style="enable-background:new 0 0 250 250" xml:space="preserve"><style>.st0{fill:#FFF}</style><switch><g><path class="st0" d="M125 214c-18.2 0-18.42-85.4-18.42-89s.22-89 18.42-89 18.42 85.4 18.42 89-.21 89-18.42 89zm-.04-171.86c-4.2 1.15-12.23 30.64-12.23 82.86s8.02 81.71 12.33 82.86c4.2-1.15 12.23-30.64 12.23-82.86s-8.03-81.68-12.32-82.83c-.01 0-.01-.03-.01-.03z"/><path class="st0" d="M193.61 173.02c-21.99 0-75.15-30.52-77.81-32.05a367.441 367.441 0 0 1-50.82-34.58C45.7 90.13 46.02 83.84 47.93 80.52c9.1-15.76 83.14 26.74 86.28 28.56a366.562 366.562 0 0 1 50.82 34.58c19.28 16.25 18.96 22.55 17.05 25.86a8.909 8.909 0 0 1-3.77 2.9c-1.48.63-3.11.83-4.7.6zM55.99 82.98c-.98-.12-1.97.11-2.8.66-1.1 4.2 20.42 25.9 65.66 52.02s74.77 33.91 77.93 30.76c1.1-4.2-20.42-25.9-65.66-52.02-38.99-22.52-66.33-31.42-75.13-31.42z"/><path class="st0" d="M56.39 173.03c-1.6.22-3.22.01-4.71-.59a9.197 9.197 0 0 1-3.77-2.9c-1.92-3.32-2.23-9.61 17.05-25.86a368.11 368.11 0 0 1 50.82-34.59c3.15-1.82 77.17-44.32 86.28-28.56 1.91 3.32 2.24 9.62-17.05 25.87a365.966 365.966 0 0 1-50.82 34.58c-2.64 1.53-55.8 32.05-77.8 32.05zm137.69-90.1c-8.68 0-36.08 8.88-75.22 31.5-45.23 26.11-66.75 47.8-65.61 52.11 3.11 3.05 32.65-4.73 77.88-30.85s66.76-47.81 65.61-52.11c-.79-.52-1.73-.75-2.66-.65z"/><path class="st0" d="M124.99 134.23c5.09 0 9.2-4.12 9.2-9.2 0-5.08-4.12-9.2-9.2-9.2-5.08 0-9.2 4.13-9.2 9.2 0 5.09 4.13 9.2 9.2 9.2zm40.3-37.97c5.08 0 9.2-4.13 9.2-9.2 0-5.09-4.12-9.2-9.2-9.2-5.08 0-9.2 4.12-9.2 9.2-.01 5.08 4.11 9.2 9.2 9.2zm-98.22 18.42c5.08 0 9.2-4.13 9.2-9.21 0-5.08-4.12-9.2-9.2-9.2s-9.2 4.13-9.2 9.21c-.01 5.07 4.12 9.2 9.2 9.2zm46.03 76.71c5.09 0 9.2-4.12 9.2-9.2 0-5.08-4.12-9.2-9.2-9.2-5.08 0-9.2 4.13-9.2 9.2-.01 5.09 4.12 9.2 9.2 9.2z"/></g></switch></svg>