<svg version="1.1" id="Layer_1" xmlns="http://www.w3.org/2000/svg" x="0" y="0" viewBox="0 0 250 250" style="enable-background:new 0 0 250 250" xml:space="preserve"><style>.st0{fill:#FFF}</style><switch><g><path class="st0" d="M113.18 69.65H54.29c-4.69 0-9.18 1.75-12.49 4.86-3.31 3.11-5.17 7.34-5.17 11.74v77.47c.01 3.51 1.2 6.94 3.41 9.77 2.21 2.84 5.32 4.94 8.88 6.01 3.56 1.07 7.39 1.05 10.94-.05 3.55-1.11 6.63-3.24 8.81-6.1l58.89-77.47c1.88-2.48 3-5.4 3.23-8.44.23-3.04-.43-6.08-1.91-8.79-1.48-2.71-3.73-4.98-6.5-6.57a18.655 18.655 0 0 0-9.2-2.43zm-47.11 38.74c-2.33 0-4.61-.65-6.54-1.86-1.94-1.22-3.45-2.94-4.34-4.97-.89-2.02-1.12-4.25-.67-6.4.45-2.15 1.58-4.12 3.22-5.67 1.65-1.55 3.75-2.6 6.03-3.03 2.29-.43 4.65-.21 6.81.63 2.15.84 3.99 2.26 5.29 4.08 1.29 1.82 1.98 3.96 1.98 6.15 0 2.94-1.24 5.75-3.45 7.83-2.21 2.07-5.21 3.24-8.33 3.24zM157.39 174.76c8.13 0 14.72-6.19 14.72-13.83s-6.59-13.83-14.72-13.83-14.72 6.19-14.72 13.83 6.59 13.83 14.72 13.83z"/><path class="st0" d="M213.38 86.25v77.47c.01 4.14-1.64 8.14-4.6 11.2-2.97 3.06-7.05 4.97-11.44 5.35-4.39.38-8.77-.79-12.29-3.29-3.52-2.5-5.91-6.14-6.71-10.22-.19-1.01-.29-2.02-.29-3.04V151.1c-.03-3.5-1.24-6.91-3.46-9.73-2.22-2.82-5.33-4.91-8.88-5.96a18.725 18.725 0 0 0-10.92.08c-3.54 1.11-6.61 3.24-8.78 6.09l-9.19 12.12-14.78 19.48c-2.82 3.37-6.92 5.58-11.43 6.18-4.52.6-9.1-.47-12.8-2.98-3.7-2.51-6.22-6.26-7.04-10.48-.82-4.22.13-8.57 2.65-12.14l58.89-77.47c1.63-2.04 3.73-3.7 6.15-4.85 2.42-1.15 5.09-1.76 7.8-1.79h29.45c4.69 0 9.18 1.75 12.49 4.86 3.31 3.12 5.18 7.34 5.18 11.74z"/></g></switch></svg>