<svg xmlns="http://www.w3.org/2000/svg" viewBox="0 0 250 250" style="enable-background:new 0 0 250 250" xml:space="preserve"><switch><g><path d="m136.32 110.23 54.86-53.81L170.37 36l-44.46 43.61L81.45 36 60.63 56.41l54.87 53.81c2.88 2.82 6.64 4.23 10.41 4.23 3.77.01 7.53-1.4 10.41-4.22zm79.43 57.48-44.46-43.6 44.45-43.61-20.81-20.41-54.86 53.81a14.37 14.37 0 0 0-3.19 4.68c-.74 1.75-1.12 3.63-1.12 5.53 0 1.9.38 3.78 1.12 5.53a14.37 14.37 0 0 0 3.19 4.68l54.86 53.81 20.82-20.42zm-89.91.97 44.45 43.6 20.82-20.41-54.87-53.81a14.885 14.885 0 0 0-10.41-4.23c-3.9 0-7.64 1.52-10.41 4.23l-54.86 53.81 20.81 20.41 44.47-43.6zm-14.16-34.29c1.36-1.34 2.44-2.93 3.18-4.68.74-1.75 1.12-3.63 1.12-5.53 0-1.9-.38-3.77-1.12-5.53-.74-1.75-1.82-3.34-3.18-4.68L56.82 60.16 36 80.58l44.46 43.6L36 167.79l20.81 20.41 54.87-53.81z" style="fill:#FFF"/></g></switch></svg>