<svg version="1.1" id="Layer_1" xmlns="http://www.w3.org/2000/svg" x="0" y="0" viewBox="0 0 250 250" style="enable-background:new 0 0 250 250" xml:space="preserve"><style>.st1{fill:#FFF}</style><switch><g><path d="M125 43.57c44.97 0 81.43 36.46 81.43 81.43 0 44.97-36.46 81.43-81.43 81.43-44.97 0-81.43-36.46-81.43-81.43 0-44.97 36.46-81.43 81.43-81.43z" style="fill:none;stroke:#010657;stroke-width:4;stroke-miterlimit:10"/><path class="st1" d="M125 145.36c-11.25 0-20.36-9.11-20.36-20.36s9.11-20.36 20.36-20.36 20.36 9.11 20.36 20.36-9.11 20.36-20.36 20.36z"/><path class="st1" d="M125 145.36c11.24 0 20.36-9.11 20.36-20.36s-9.11-20.36-20.36-20.36-20.36 9.11-20.36 20.36 9.12 20.36 20.36 20.36zM153.5 125c0 11.25 9.11 20.36 20.36 20.36v-40.71c-11.25-.01-20.36 9.1-20.36 20.35zM96.5 125c0-11.25-9.11-20.36-20.36-20.36v40.71c11.25.01 20.36-9.1 20.36-20.35zM125 96.5c11.25 0 20.36-9.11 20.36-20.36h-40.71c-.01 11.25 9.1 20.36 20.35 20.36zM173.86 96.5V76.14H153.5c0 11.25 9.11 20.36 20.36 20.36zM96.5 76.14H76.14V96.5c11.25 0 20.36-9.11 20.36-20.36zM125 153.5c-11.25 0-20.36 9.11-20.36 20.36h40.71c.01-11.25-9.1-20.36-20.35-20.36zM173.86 153.5c-11.25 0-20.36 9.11-20.36 20.36h20.36V153.5zM76.14 153.5v20.36H96.5c0-11.25-9.11-20.36-20.36-20.36z"/></g></switch></svg>