<svg version="1.1" id="Layer_1" xmlns="http://www.w3.org/2000/svg" x="0" y="0" viewBox="0 0 250 250" style="enable-background:new 0 0 250 250" xml:space="preserve"><style>.st0{fill:#FFF}</style><switch><g><path class="st0" d="M130.92 131.9h-11.87l.14.37-23.9 60.74 10.03 3.96L125 146.99l19.65 49.98 10.03-3.96-23.89-60.74.13-.37z"/><path class="st0" d="m196.97 105.34-3.96-10.04-60.74 23.9-1.06-.41-.41-1.06 23.89-60.74-10.03-3.96-19.65 49.98-19.69-49.98-10.04 3.96 23.9 60.74-.41 1.06-1.06.41-60.73-23.89-3.95 10.03L103.01 125l-49.98 19.66 3.96 10.04 60.74-23.9.98.38v-11.86h.54l-.06-.14.34.14h10.95l.34-.14-.06.14h.54v11.85l.98-.38 60.74 23.89 3.96-10.03L147 125l49.97-19.66z"/></g></switch></svg>