<svg version="1.1" id="Layer_1" xmlns="http://www.w3.org/2000/svg" x="0" y="0" viewBox="0 0 250 250" style="enable-background:new 0 0 250 250" xml:space="preserve"><style>.st0{fill:#FFF}</style><switch><g><path class="st0" d="M119.07 101.27v.08l-7.93-41.88-6.58-2.11-4.14 5.57 18.65 38.34zM123.38 83.78l3.38 16.21 3.63-16.47-3.54-2.36-3.47 2.62zM148.45 86.67l-4.3.42-5.06 16.04 11.14-12.58-1.78-3.88zM185.23 90.04V83.2l-6.67-2.11-31.23 29.3 37.9-20.35zM108.94 107.34l-9.28-13.93.17.34-.17-.34-4.22.68-.67 4.22 14.17 9.03zM168.7 121.54l-16.63 3.29 16.63 3.63 2.53-3.46-2.53-3.46zM101.52 124.91l-42.7-5.4-4.14 5.57 4.14 5.57 42.7-5.74zM85.74 134.2l-1.27 3.97 3.46 2.53 14.77-8.28-16.96 1.78zM90.63 145.95l-.17 4.22 4.05 1.44 11.82-12.41-15.7 6.75zM111.9 144.93l-12.57 11.06 1.1 4.05 4.3.17 7.17-15.28zM126.84 149.81l-3.38 16.38 3.46 2.45 3.46-2.53-3.54-16.3zM185.32 159.79l-37.98-20.18 31.39 29.13 6.58-2.11v-6.84zM143.47 162.92l-8.52-14.27 1.94 16.38 4.05 1.27 2.53-3.38zM119.15 148.65l-18.48 38.42 4.14 5.57 6.58-2.11 7.76-41.88z"/></g></switch></svg>