<svg version="1.1" id="Layer_1" xmlns="http://www.w3.org/2000/svg" x="0" y="0" viewBox="0 0 250 250" style="enable-background:new 0 0 250 250" xml:space="preserve"><style>.st0{fill:#FFF}</style><switch><g><path class="st0" d="M142.95 112.98h-11.06c-1.34.01-2.62.55-3.56 1.51-.95.96-1.49 2.26-1.51 3.62v92.67c.02 1.36.56 2.66 1.51 3.62s2.23 1.5 3.56 1.51h11.06c1.34-.01 2.61-.55 3.56-1.51.95-.96 1.49-2.26 1.5-3.62v-92.67a5.29 5.29 0 0 0-1.5-3.62c-.95-.96-2.23-1.5-3.56-1.51zM167.84 127.88h-11.06c-1.34.01-2.61.55-3.56 1.51-.95.96-1.49 2.26-1.51 3.62v63.82c.02 1.36.56 2.66 1.51 3.62s2.23 1.5 3.56 1.51h11.03c1.33-.01 2.61-.55 3.56-1.51.95-.96 1.49-2.26 1.5-3.62l.03-63.82a5.29 5.29 0 0 0-1.5-3.62c-.94-.96-2.22-1.5-3.56-1.51zM77.41 188.64c.21.51.51.97.9 1.36a4.083 4.083 0 0 0 2.93 1.22H92.3c1.45-.01 2.85-.61 3.88-1.65a5.773 5.773 0 0 0 1.65-3.94V34.1c-7.17 1.67-14.11 3.9-20.73 6.77v146.16c-.01.55.1 1.1.31 1.61zM118.08 120.43h-11.06c-1.34.01-2.61.55-3.56 1.51-.95.96-1.49 2.26-1.5 3.62v77.77a5.29 5.29 0 0 0 1.5 3.62c.95.96 2.23 1.5 3.56 1.51h11.06c1.34-.01 2.62-.55 3.56-1.51.95-.96 1.49-2.26 1.51-3.62v-77.77a5.256 5.256 0 0 0-1.51-3.62 4.988 4.988 0 0 0-3.56-1.51z"/></g></switch></svg>