<svg xmlns="http://www.w3.org/2000/svg" viewBox="0 0 250 250" style="enable-background:new 0 0 250 250" xml:space="preserve"><switch><g><path d="M169.55 157.41c0 14.92-12.18 27.06-27.16 27.06H90.31l54.12-53.91c14.01 1.06 25.12 12.63 25.12 26.85zm-86.92-29.14V65.69h59.87c1.02 0 2.03.05 3.03.17l-62.9 62.41zm97.81-35.64c0-12.61-6.24-23.79-15.81-30.67l25.83-25.68-15.45.09-20.52 20.4c-3.8-1.27-7.86-1.96-12.08-1.96H71.77v99.47l85.04-84.55c7.66 4.78 12.76 13.26 12.76 22.9 0 14.9-12.19 27.01-27.17 27.01h-2.25l-94.62 94.07H60.9l18.55-18.44h62.95c20.97 0 38.03-16.96 38.03-37.81 0-13.75-7.44-25.77-18.51-32.39 11.09-6.62 18.52-18.68 18.52-32.44z" style="fill-rule:evenodd;clip-rule:evenodd;fill:#FFF"/></g></switch></svg>