<svg xmlns="http://www.w3.org/2000/svg" viewBox="0 0 250 250" style="enable-background:new 0 0 250 250" xml:space="preserve"><switch><g><path d="M137.3 65.93c1.9-2.92 6.42-1.71 6.6 1.77l1.98 37.69a3.574 3.574 0 0 0 2.66 3.28l36.45 9.77c3.36.9 3.61 5.58.36 6.83l-35.23 13.52a3.601 3.601 0 0 0-2.3 3.54l1.98 37.69c.18 3.48-4.19 5.16-6.38 2.45l-23.75-29.33a3.59 3.59 0 0 0-4.08-1.09l-35.23 13.52c-3.25 1.25-6.2-2.39-4.3-5.31l20.55-31.65c.85-1.31.76-3.01-.22-4.22L72.62 95.06c-2.19-2.71.36-6.64 3.72-5.73l36.45 9.77c1.5.4 3.1-.21 3.94-1.51l20.57-31.66z" style="fill:#FFF"/><path d="M105.46 197.91c40.27 10.79 81.66-13.11 92.45-53.38 10.79-40.27-13.11-81.66-53.38-92.45-40.27-10.79-81.66 13.11-92.45 53.38-10.78 40.27 13.11 81.66 53.38 92.45zm-1.39 5.21c43.14 11.56 87.49-14.04 99.05-57.19 11.56-43.14-14.04-87.49-57.19-99.05-43.14-11.56-87.49 14.04-99.05 57.19-11.56 43.14 14.04 87.49 57.19 99.05z" style="fill-rule:evenodd;clip-rule:evenodd;fill:#FFF"/></g></switch></svg>