<svg xmlns="http://www.w3.org/2000/svg" viewBox="0 0 250 250" style="enable-background:new 0 0 250 250" xml:space="preserve"><switch><g><path d="M194.96 157.54h-98v-53.31H82.13v60.64c.01.98.22 1.94.61 2.83a7.426 7.426 0 0 0 4.09 3.95c.91.36 1.88.53 2.85.51h85.67l-17.68 15.54H62.66V99.8h97.8c1.86.02 3.67-.63 5.1-1.83l34.5-30.17a7.231 7.231 0 0 0 2.33-3.69 7.22 7.22 0 0 0-.24-4.36c-.58-1.4-1.56-2.6-2.82-3.45a7.7 7.7 0 0 0-4.26-1.29H89.67a7.56 7.56 0 0 0-2.86.53 7.468 7.468 0 0 0-4.09 3.97 7.5 7.5 0 0 0-.61 2.84v18.24h14.83V69.68h78.38l-17.68 15.29H55.17a7.56 7.56 0 0 0-2.86.53 7.468 7.468 0 0 0-4.09 3.97 7.5 7.5 0 0 0-.61 2.84V194.8c.01.98.22 1.94.61 2.84a7.468 7.468 0 0 0 4.09 3.97c.91.36 1.88.54 2.86.53h105.29c1.87.03 3.69-.65 5.1-1.89l34.4-29.76a7.331 7.331 0 0 0 2.31-3.7c.37-1.44.3-2.96-.22-4.35a7.595 7.595 0 0 0-2.79-3.54 7.638 7.638 0 0 0-4.3-1.36z" style="fill:#FFF"/></g></switch></svg>