<svg version="1.1" id="Layer_1" xmlns="http://www.w3.org/2000/svg" x="0" y="0" viewBox="0 0 250 250" style="enable-background:new 0 0 250 250" xml:space="preserve"><style>.st0{fill:#FFF}</style><switch><g><path class="st0" d="M168.61 119.11c.06 6.38-1.51 12.67-4.57 18.27a33.705 33.705 0 0 1-14 13.21 49.32 49.32 0 0 1-23.48 5.05h-17.3v41.09H81.42V82.26h45.17c7.98-.24 15.91 1.37 23.16 4.73a32.484 32.484 0 0 1 14.17 13.04 37.957 37.957 0 0 1 4.69 19.08zm-44.14 14.36c4.3.34 8.57-1 11.9-3.75 2.53-2.96 3.91-6.72 3.91-10.6s-1.39-7.65-3.91-10.6a16.63 16.63 0 0 0-11.9-3.75h-15.21v28.73l15.21-.03zM168.61 53.26H81.38v18.41h87.23V53.26z"/></g></switch></svg>