<svg version="1.1" id="Layer_1" xmlns="http://www.w3.org/2000/svg" x="0" y="0" viewBox="0 0 250 250" style="enable-background:new 0 0 250 250" xml:space="preserve"><style>.st0{fill:#FFF}</style><switch><g><path class="st0" d="M179.36 70.65c-14.53-14.53-33.82-22.52-54.35-22.52-42.39 0-76.88 34.48-76.88 76.87s34.48 76.87 76.88 76.87c20.53 0 39.84-7.99 54.35-22.52 14.53-14.53 22.51-33.82 22.51-54.35s-7.99-39.83-22.51-54.35zm-54.35 125.9c-39.45 0-71.55-32.1-71.55-71.55s32.1-71.55 71.55-71.55 71.55 32.1 71.55 71.55-32.1 71.55-71.55 71.55z"/><path class="st0" d="M179.36 70.65c-14.53-14.53-33.82-22.52-54.35-22.52-42.39 0-76.88 34.48-76.88 76.87s34.48 76.87 76.88 76.87c20.53 0 39.84-7.99 54.35-22.52 14.53-14.53 22.51-33.82 22.51-54.35s-7.99-39.83-22.51-54.35zm-54.35 125.9c-39.45 0-71.55-32.1-71.55-71.55s32.1-71.55 71.55-71.55 71.55 32.1 71.55 71.55-32.1 71.55-71.55 71.55z"/><path class="st0" d="M150.19 126.8c-4.92-4.4-11.36-7.33-17.6-10.17l-.05-.02c-11-5.03-20.52-9.38-19.84-19.66.29-3.92 3.14-6.29 5.47-7.56 2.63-1.44 6.12-2.31 9.34-2.31.38 0 .77.02 1.14.03 9.39.63 16.8 4.61 24.04 12.88l.43.51.51-.43 2.83-2.46.51-.45-.45-.51c-8.07-9.25-16.83-13.91-27.54-14.63-.46-.05-.95-.06-1.49-.06-.32 0-.68 0-1.05.02h-.46c-7.02 0-14.72 2.31-20.58 6.18-6.99 4.63-10.91 10.99-11.02 17.92-.28 16.86 13.51 22.53 25.67 27.56l.03.02.12.05c10.76 4.46 20.04 8.3 19.84 18.6-.09 6.79-9.81 10.54-16.48 10.54H122.62v.02c-9.94-.29-18.83-4.58-26.4-12.71l-.46-.49-.49.45-2.75 2.55-.49.46.46.49c8.61 9.27 19.23 14.25 30.72 14.39h.52c7.42 0 15.49-2 21.58-5.36 7.62-4.17 12.07-10.24 12.53-17.09.53-7.56-1.97-13.69-7.65-18.76zm-35.68-14.66c4.38 3.75 10.31 6.44 16.05 9.04l.11.05c6.07 2.8 11.82 5.44 15.98 9.11 4.61 4.06 6.56 8.76 6.15 14.8-.38 5.98-4.83 9.97-8.87 12.39.78-1.6 1.21-3.34 1.26-5.18.09-6.21-2.29-11.17-7.3-15.2-4.38-3.52-10.19-5.9-15.82-8.22-11.7-4.81-22.75-9.36-22.55-22.79.06-5.16 3.17-10.05 8.75-13.76.18-.12.37-.25.57-.37-.66 1.44-1.03 2.95-1.12 4.53-.45 6.22 1.78 11.32 6.79 15.6z"/></g></switch></svg>