<svg version="1.1" id="Layer_1" xmlns="http://www.w3.org/2000/svg" x="0" y="0" viewBox="0 0 250 250" style="enable-background:new 0 0 250 250" xml:space="preserve"><style>.st0{fill:#FFF}</style><switch><g><path class="st0" d="m185.69 160.17-.04.06c-.19.34-.4.68-.59.98l-.4.53c-1.4 2.01-3.14 3.67-5.21 5.04l-44.36 25.65a20.263 20.263 0 0 1-10.04 2.65c-3.49 0-6.93-.89-10.08-2.65l-38.64-22.31c-.47-.34-.91-.64-1.23-.93l-.09-.04c-.49-.55-.7-1.1-.53-1.63.47-1.5 3.77-2.18 3.92-2.2.89-.15 1.72-.27 2.6-.42l.55-.08c1.42-.19 2.8-.42 4.22-.62 1.4-.21 2.8-.38 4.22-.59 5.57-.8 10.95-1.48 16.44-2.12 5.15-.63 10.49-1.19 15.89-1.67 5.66-.53 10.7-.95 15.32-1.23 5.04-.3 10.02-.59 14.85-.76 4.83-.23 9.66-.3 14.36-.32.45 0 .95-.02 1.4-.02h1.4c3.54 0 7.29.04 11.1.11.45.04.93.06 1.38.08l.78.04c1.42.13 2.31.55 2.69 1.16.26.36.26.8.09 1.29zM188.46 121.04v14.62c0 5.42.06 5.53-11.14 6.93l-7.31.62c-.95.09-1.97.17-2.97.3l-2.31.19c-18.56 1.87-37.13 3.49-55.73 4.64-8.22.49-16.44.93-24.68 1.25-3.85.13-7.67.27-11.52.36-1.84.02-3.69.06-5.53.1-1.46.04-3.73.51-4.91-.57-1.12-1.04-.76-3.11-.76-4.55v-36.86c0-5.11 1.61-6.23 12.24-6.88 1.76-.02 3.64-.06 6.1-.06 31.12 0 64.23 4.62 104.18 14.59.06 0 .11 0 .15.02.02 0 .06.02.08.02.32.09.68.17 1 .25l.08.02c1.41.58 3.03.28 3.03 5.01zM185.68 96.85c-.17.17-.38.3-.66.36-1.21.34-2.75.11-3.98.08-1.44-.04-2.84-.11-4.26-.19a201 201 0 0 1-8.39-.76c-3.71-.4-7.41-.8-11.1-1.19-5.57-.57-11.14-1.17-16.69-1.76-6.52-.7-12.99-1.38-19.47-2.06-6.48-.72-12.94-1.38-19.43-2.08-5.51-.59-11.04-1.17-16.56-1.74-3.64-.4-7.26-.76-10.89-1.16-.91-.09-1.82-.19-2.75-.28-.21-.04-.42-.08-.61-.08-.68-.11-1.31-.19-1.59-.68-.11-.19-.21-.62.17-1.21l.21-.17c.28-.19.55-.4.93-.64.34-.25.7-.45 1.06-.7l43.3-25c3.11-1.74 6.55-2.67 10.1-2.67 3.52 0 7.01.93 10.04 2.67l43.32 24.98c3.56 2.06 6.4 5.59 7.31 9.74.25 1.08.93 3.54-.06 4.54z"/></g></switch></svg>