<svg version="1.1" id="Layer_1" xmlns="http://www.w3.org/2000/svg" x="0" y="0" viewBox="0 0 250 250" style="enable-background:new 0 0 250 250" xml:space="preserve"><style>.st0{fill:#FFF}</style><switch><g><path class="st0" d="M173.65 191.78c-8.73 0-16.83-4.07-22.22-11.17l-.07-.1c-2.41-3.52-2.89-9.45 1.48-14.78 2.37-2.89 7.37-6.12 15.27-9.87 6.5-3.04 10.99-5.91 13.74-8.78 1.2-1.26 1.75-2.5 2-3.32.3-1 .03-2.43-.86-2.87l2.27-4.68c10.09 4.7 16.61 15.09 16.61 26.49 0 16.03-12.66 29.08-28.22 29.08zm-18.04-14.26c4.39 5.76 10.96 9.06 18.03 9.06 12.69 0 23.02-10.71 23.02-23.87 0-6.91-2.9-13.37-7.73-17.83-.03.14-.07.28-.11.41-.6 1.95-1.71 3.82-3.22 5.4-3.21 3.35-8.21 6.58-15.28 9.89-8.83 4.18-12.2 6.91-13.46 8.46-3.01 3.65-2.21 7.03-1.25 8.48z"/><path class="st0" d="m169.95 160.76-3.22-.78-.52-1.65c.2-5.7 1.77-11.82 4.2-16.39 2.71-5.1 9.38-7.89 14.29-5.97l.64.28c3.52 1.77 4.42 5.98 3.49 9.04-.59 1.95-1.71 3.82-3.22 5.4-3.21 3.35-8.2 6.58-15.28 9.89l-.38.18zm11.37-20.2c-2.21 0-5.03 1.38-6.33 3.82-1.43 2.68-2.53 6.13-3.12 9.63 4.51-2.36 7.79-4.64 9.97-6.92 1.21-1.26 1.76-2.5 2.01-3.32.3-.98.04-2.38-.81-2.85l-.28-.12c-.42-.16-.91-.24-1.44-.24zM88.7 189.77c-24.64-11.1-40.57-35.73-40.57-62.74 0-37.94 30.87-68.81 68.81-68.81 21.25 0 40.98 9.6 54.12 26.35l.08.1c4.03 5.68 7.8 18.88-3.61 32.34-5.74 6.77-18.19 14.49-38.05 23.6-17.24 7.8-29.25 15.26-36.72 22.81-2.9 2.93-5.01 6.34-6.12 9.86-1.3 4.12-.05 9.66 4.28 11.78l-2.22 4.71zm28.25-126.35c-35.08 0-63.61 28.54-63.61 63.61 0 21.27 10.69 40.95 27.94 52.65-.53-2.7-.38-5.5.39-7.96 1.36-4.31 3.91-8.44 7.39-11.95 7.93-8.01 20.44-15.82 38.26-23.88 18.88-8.66 31.08-16.14 36.24-22.23 9.32-10.99 6.52-21.44 3.37-25.92-12.14-15.46-30.36-24.32-49.98-24.32z"/><path class="st0" d="M97.23 191.57c-2.53 0-5.01-.41-7.3-1.28l-1.3-.55c-6.85-3.35-8.92-11.79-6.96-18.01 1.36-4.31 3.91-8.44 7.39-11.95 7.93-8.01 20.44-15.82 38.26-23.88l1.03-.49 3.41 1.13.31 1.33c-.5 13.7-4.38 28.39-10.38 39.31-4.79 8.73-15.03 14.39-24.46 14.39zm-5.41-6.13c8.43 3.15 20.48-1.97 25.32-10.77 5.01-9.12 8.45-21.09 9.47-32.73-15.72 7.33-26.8 14.37-33.84 21.49-2.9 2.93-5.01 6.34-6.12 9.86-1.29 4.11-.06 9.61 4.22 11.75l.95.4z"/></g></switch></svg>