<svg version="1.1" id="Layer_1" xmlns="http://www.w3.org/2000/svg" x="0" y="0" viewBox="0 0 250 250" style="enable-background:new 0 0 250 250" xml:space="preserve"><style>.st0{fill-rule:evenodd;clip-rule:evenodd;fill:#FFF}</style><switch><g><path class="st0" d="M186.85 91.91c-.27-1.57-1.23-3.41-2.35-4.52-1.4-1.38-55.41-35.11-57-35.6-1.33-.41-3.92-.47-5.05-.11-1.15.36-.94.23-28.9 17.76-31.39 19.68-29.61 18.37-30.4 22.22-.23 1.11 5.35 96.89 5.82 99.91.47 3.01 2.72 5.61 5.71 6.62l1.09.37 49.43-.04 49.43-.04 1.02-.41c2.32-.94 4.29-3.06 5.03-5.41.53-1.71 6.48-98.93 6.17-100.75zm-18.18 92.02a3.25 3.25 0 0 1-1.49 1.67c-.67.34-1.18.35-42.34.35H83.18l-.59-.4c-.91-.61-1.35-1.39-1.46-2.63-.06-.6-1.29-20.28-2.75-43.73l-2.64-42.65.39-.75c.31-.59.76-.98 2.16-1.87.97-.62 11.66-7.32 23.75-14.9l21.98-13.77.96.07c.93.06 1.69.52 24.34 14.65 23.97 14.95 24.39 15.24 24.65 16.52.16.78-5.06 86.82-5.3 87.44z"/><path class="st0" d="m108.09 92.83-16.81 10.55.05.87c.03.48.51 8.33 1.09 17.44.57 9.12 1.04 16.78 1.04 17.03v.46h46.24v.57c0 .31-.2 3.52-.44 7.14-.24 3.61-.43 6.78-.44 7.05v.48H111.2l-.11-1.36c-.06-.75-.19-3.09-.3-5.21-.11-2.12-.23-4.03-.27-4.25l-.08-.39H93.8v.83c0 .99 1.35 24.51 1.5 26.1l.1 1.09H125c16.27 0 29.58-.06 29.58-.13s.67-10.92 1.49-24.1c.82-13.18 1.49-24.12 1.49-24.3 0-.33-.49-.33-24.17-.33-19.22 0-24.17-.04-24.17-.22 0-.12-.13-2.33-.29-4.91-.25-4.04-.26-4.73-.05-4.93.23-.22 14.97-9.49 15.74-9.9.29-.16 1.57.59 8.45 4.87l8.11 5.05-.06 3.09-.06 3.09 8.38-.05 8.38-.05.38-6.48c.21-3.56.39-6.96.39-7.54l.01-1.06-16.51-10.31c-9.08-5.67-16.66-10.41-16.86-10.53-.3-.18-2.04.87-17.14 10.34"/></g></switch></svg>