<svg xmlns="http://www.w3.org/2000/svg" viewBox="0 0 250 250" style="enable-background:new 0 0 250 250" xml:space="preserve"><switch><g><path d="M125.77 48.76v-.52l-.99.43-23.44 3.72-21.35 10.87-16.93 16.93-10.52 20.65-.5-.16.11 1.12-3.71 23.4 3.75 23.66 10.87 21.34 16.38 16.38-.3.42 1.05.23 21.15 10.78 23.66 3.75 23.66-3.75 20.63-10.52.31.42.55-.93 16.79-16.79 10.88-21.34 3.75-23.66-3.63-22.88.49-.16-.71-.8-10.79-21.17L170 63.26l-21.34-10.87-22.89-3.63zm67.87 48-7.46-14.64-2.52 3.39 9.98 11.25zm-18.74-2.02 6.63-8.95-17.17-9.9 10.54 18.85zm-21.84-4.97 20.49 6.79-11.12 15-9.37-21.79zm-1.57.27 9.47 22.01-22.21-4.47 12.74-17.54zm22.02-21.09 9.23 15.22 2.55-3.44-11.78-11.78zm6.94 14.44-10.97-18.1-6.03 8.3 17 9.8zm-7.29 11.42-10.93-19.55-9.33 12.84 20.26 6.71zm-34.59 14.31 6.86 21.12 15.33-16.65-22.19-4.47zm28.52 28.94-5.26-23.35-15.33 16.66 20.59 6.69zm-3.78-23.82 17.79 5.59-12.58 17.53-5.21-23.12zm19.96 6.27 2.56 21.43 8.07-18.09-10.63-3.34zm12.56 3.95 1.48 17.75 2.61-16.46-4.09-1.29zm.36 23.05-1.75-21.08-7.99 17.91 9.74 3.17zm-11.71-3.8-15.09-4.9 12.43-17.33 2.66 22.23zm-20.83-30.98 17.51 5.5-6.63-20.4-10.94 14.75.15.03-.09.12zm36.17 11.37-4.04-1.27 1.46-14.96 2.58 16.23zm-10.03-19.13 6.39-2.08-1.63 16.72-4.76-14.64zm3.97 17.22-5.04-15.53-5.31 12.28 10.35 3.25zm-17.82-26.25 11.51 6.82-5.05-15.54-6.46 8.72zm-2.68 85.75 11.6-11.6-4-1.34-7.6 12.94zm-3.89-18.44 10.57 3.55 4.11-19.39-14.68 15.84zm-2.01-22.31-.13 21.59-17.68-5.94 17.81-15.65zm-.74-1.41-18 15.81-2.61-22.51 20.61 6.7zm17.38 5.65-15.09-4.9-.13 21.34L184 145.18zm-2.1 19.84 4.07-19.21 9.76 3.17-13.83 16.04zm4.01 3.78 7.56-14.84-11.62 13.47 4.06 1.37zm-41.43-35.66-17.96 13.05 20.57 9.43-2.61-22.48zm-18.71 36.07v-21.66l20.59 9.44-20.59 12.22zm21.49-10.96.18 18.66-20.57-6.55 20.39-12.11zm.2 20.92-19.6 9.06 19.71 2.09-.11-11.15zm.13 13.17-16.39 6.88 16.43-2.61-.04-4.27zm-21.82 7.48 19.51-8.19-19.51-2.07v10.26zm0-12.33 20.32-9.4-20.32-6.47v15.87zm23.04-29.38.18 18.34 17.34-12.6-17.39-5.84.02.16-.15-.06zm.36 37.9-.04-4.22 14.65-3.23-14.61 7.45zm15.09-15.44 3.95 5.44-16.41 3.62 12.46-9.06zm-15.15 9.09 13.21-9.6-13.31-1.25.1 10.85zm19.45-25.05-2.92 13.05 13.22-9.6-10.3-3.45zm-82.38 23.94L100.8 196l.04-4.22-14.66-3.23zm35.95-.33-19.72 2.09.11-11.15 19.61 9.06zm.99-17.87-20.58 6.54.18-18.66 20.4 12.12zm1.1-22.81-20.6 9.43 20.6 12.23v-21.66zm-20.33 30.55 20.33-6.46v15.86l-20.33-9.4zm.82 13.53 19.51-2.07v10.25l-19.51-8.18zm-2.36 4.99 16.48 2.61-16.44-6.9-.04 4.29zm21.12-50.42-20.58 9.43 2.62-22.48 17.96 13.05zm-23.04 10.39-17.8-15.65.13 21.58 17.67-5.93zm.93-1.24 2.62-22.51-20.61 6.7 17.99 15.81zm-20.28-15.06.13 21.34-15.22-16.43 15.09-4.91zm-17.06 5.54 4.07 19.19-13.82-16.02 9.75-3.17zm-7.48 8.17 11.58 13.44-4.05 1.36-7.53-14.8zm13.5 12.8-4.11-19.38 14.67 15.84-10.56 3.54zm31.01-8.78-17.4 5.84 17.35 12.6.18-18.35-.14.06.01-.15zm-35.93 12.06 3.99-1.34 7.61 12.94-11.6-11.6zm19.34 9.58-3.94 5.43L72 170.6l12.46 9.05zm-13.34-11.6 13.22 9.6-2.92-13.06-10.3 3.46zm29.85 10.75-13.32 1.25 13.22 9.59.1-10.84zm-48.23-70.9-2.57 16.18 4.02-1.26-1.45-14.92zm-.05 34.23 1.48-17.68-4.08 1.28 2.6 16.4zm11.48-.19-8.08-18.1 10.63-3.34-2.55 21.44zm17.3-4.57-12.59-17.54 17.8-5.59-5.21 23.13zm1.43.69 5.27-23.36 15.33 16.67-20.6 6.69zm-14.74-16.58 12.44 17.33-15.08 4.9 2.64-22.23zm-12.61 4.94 8 17.92-9.76 3.17 1.76-21.09zm49.01 3.82 6.86-21.12-22.19 4.46 15.33 16.66zm-7.48-42.15L76.83 94.8l10.92-19.55 9.33 12.84zm1.42 1.95-9.48 22 22.22-4.47L98.5 90.04zm-10.95 21.5 9.38-21.78-20.49 6.79 11.11 14.99zm-12.46-16.8-6.64-8.95 17.17-9.9-10.53 18.85zm-7.84-10.58 9.21-15.19-11.75 11.76 2.54 3.43zm13.26-18.88L69.54 83.37l17-9.8-6.03-8.29zm5.88 47.29L75.46 97.82l-6.63 20.4 17.51-5.5-.1-.11.15-.04zM63.81 82.12l2.51 3.39-9.95 11.21 7.44-14.6zm-3.14 21.37-6.39-2.08 11.15-12.57-4.76 14.65zm6.92-16.28-5.05 15.54 11.52-6.82-6.47-8.72zm-1.01 31.72-5.31-12.28-5.04 15.53 10.35-3.25zm52.56-67.8-16.21 2.57 2.45 3.44 13.76-6.01zM86.51 61.67l17.3-4.06-2.48-3.48-14.82 7.54zm3.76 10.85 14.72-13.27 6.46 9.07-21.18 4.2zm9.71 15.04 12.79-17.39 10.82 15.2-23.61 2.19zm-.23 1.57 23.85-2.21-11.11 19.74-12.74-17.53zM110.97 70 98.33 87.18l-9.32-12.83L110.97 70zm-8.6-10.46L87.79 72.67l-6.03-8.3 20.61-4.83zm11.52 47.79h22.21L124.99 87.6l-11.1 19.73zm54.34-42.95-20.6-4.84 14.57 13.14 6.03-8.3zm-7.25 9.97L139.02 70l12.64 17.18 9.32-12.83zm-10.74 14.78-23.85-2.21 11.11 19.74 12.74-17.53zm-23.84-3.76 23.62 2.19-12.8-17.39-10.82 15.2zm12.14-17.04 6.46-9.08 14.72 13.27-21.18-4.19zm7.63-10.73 2.48-3.48 14.82 7.55-17.3-4.07zm-21.1 26.98 10.65-14.95h-21.44l10.65 14.95.08-.14.06.14zm21.99-30.88-2.45 3.43-13.76-6 16.21 2.57zm-21.29 3.62V50.6l15.41 6.72h-15.41zm17.61 1.55h-16.33l10.04 8.84 6.29-8.84zm-30.47 8.84 10.04-8.84h-16.33l6.29 8.84zm1.91.37 10.17-8.95 10.17 8.95h-20.34zm-6-10.76h15.4V50.6l-15.4 6.72zm-2.72 73.2 6.74-20.75 10.91 15.01-17.65 5.74zm18.12 14.3L106.56 132l17.66-5.74v18.56zm19.21-12.83-17.66 12.83v-18.57l17.66 5.74zm-6.28-22.22 6.74 20.75-17.65-5.73 10.91-15.02zm-1.25-.9L125 123.88l-10.9-15.01h21.8zm-82.09-5.99 6.39 2.08-4.75 14.64-1.64-16.72zm20-5.01-11.67 6.91 5.38 12.44 6.29-19.35zM81.77 186l3.94-5.43 12.47 9.05L81.77 186zm1.42-20.58 2.96 13.22 13.5-1.27-16.46-11.95zm86.27 19.68-3.95-5.44 12.46-9.05-8.51 14.49zm-19.13-7.71 13.49 1.27 2.96-13.23-16.45 11.96zm25.85-79.52 11.66 6.91-5.38 12.44-6.28-19.35zm8.37-9.02 4.76 14.65 6.39-2.08-11.15-12.57z" style="fill-rule:evenodd;clip-rule:evenodd;fill:#FFF"/></g></switch></svg>