<svg version="1.1" id="Layer_1" xmlns="http://www.w3.org/2000/svg" x="0" y="0" viewBox="0 0 500 120" style="enable-background:new 0 0 500 120" xml:space="preserve"><style>.st0{fill:#FFF}</style><switch><g><path class="st0" d="M80.79 18.29v3.45c19.89 1.4 35.59 17.96 35.59 38.21 0 17.02-11.1 31.44-26.46 36.43l.78-3.26c13.36-5.1 22.87-18.04 22.87-33.17 0-18.66-14.47-33.99-32.78-35.39v3.45c16.31 1.37 29.15 14.95 29.33 31.58l-15.2 5.56-5.45 18.36-.5 2.08-9.18-6.12v-8.3l11.1-5.68V54.5l14.53-3.92-.9-3.32-17.08 4.6V63.4l-9.41 4.82-8.66-4.12V52.63l-17.49-5.36-1.01 3.29 15.06 4.62v11.08l10.41 4.96v8.25l-9.17 5.96-.64-2.16-6.1-18.17-14.41-5.36c.11-16.69 12.97-30.35 29.33-31.73v-3.45c-18.31 1.39-32.78 16.73-32.78 35.39 0 15.3 9.74 28.37 23.34 33.34l.98 3.31c-15.7-4.79-27.13-19.38-27.13-36.65 0-20.24 15.7-36.81 35.59-38.21v-3.45C53.59 19.7 36.31 37.84 36.31 59.95c0 23.02 18.73 41.75 41.75 41.75s41.75-18.73 41.75-41.75c.01-22.11-17.26-40.25-39.02-41.66zM97.73 67.8l5.63-2.06a25.881 25.881 0 0 1-9.38 14.69l3.75-12.63zm-5.2 17.7c7.68-4.36 13.22-12.07 14.59-21.14l2.83-1.04c-1.19 11.37-8.33 20.97-18.25 25.64l.83-3.46zM57.69 67.75l4.19 12.45a25.859 25.859 0 0 1-9.03-14.25l4.84 1.8zm-11.48-4.26 2.86 1.06c1.42 8.99 6.92 16.63 14.55 20.96l1.05 3.55c-10-4.6-17.21-14.19-18.46-25.57zm39.93 33.92c-2.6.56-5.3.86-8.07.86-2.5 0-4.94-.25-7.31-.7l-2.64-8.94.14.21 9.8-6.37 10.05 6.7-1.97 8.24z"/><path class="st0" d="m52.68 45.18 3.45.93a25.928 25.928 0 0 1 19.22-11.95v-3.47c-9.67.9-18 6.5-22.67 14.49zM100.34 46.65l3.43-.92c-4.6-8.28-13.09-14.12-22.98-15.03v3.47c8.31.86 15.46 5.64 19.55 12.48zM78.07 15.09c-.58 0-1.15.02-1.72.05v19.14h3.44V15.15c-.57-.03-1.14-.06-1.72-.06zM79.8 35.17h-3.46l-1.72 2.99 1.72 2.99h3.46l1.72-2.99z"/><g><path class="st0" d="M78.07 107.64c-26.27 0-47.64-21.37-47.64-47.64S51.8 12.36 78.07 12.36 125.71 33.73 125.71 60s-21.37 47.64-47.64 47.64zm0-91.84c-24.37 0-44.2 19.83-44.2 44.2s19.83 44.2 44.2 44.2 44.2-19.83 44.2-44.2-19.83-44.2-44.2-44.2z"/></g><g><path class="st0" d="M146.91 49.34c1.38-2.41 3.25-4.29 5.64-5.64 2.38-1.35 5.05-2.02 8.01-2.02 3.46 0 6.49.89 9.1 2.66 2.6 1.77 4.42 4.23 5.46 7.37h-7.14c-.71-1.48-1.71-2.59-3-3.33-1.29-.74-2.77-1.11-4.46-1.11-1.8 0-3.41.42-4.81 1.26-1.41.84-2.5 2.03-3.28 3.57-.78 1.54-1.18 3.34-1.18 5.41 0 2.04.39 3.84 1.18 5.39.78 1.55 1.88 2.75 3.28 3.59 1.4.84 3.01 1.26 4.81 1.26 1.69 0 3.17-.38 4.46-1.13 1.29-.75 2.29-1.87 3-3.35h7.14c-1.04 3.17-2.85 5.63-5.44 7.39-2.59 1.76-5.63 2.64-9.12 2.64-2.96 0-5.63-.67-8.01-2.02s-4.26-3.22-5.64-5.61c-1.38-2.4-2.06-5.12-2.06-8.16 0-3.03.69-5.76 2.06-8.17zM200.85 73.05l-6.83-12.07h-2.93v12.07h-6.21V42.08h11.63c2.4 0 4.44.42 6.12 1.26 1.69.84 2.95 1.98 3.79 3.42.84 1.44 1.26 3.04 1.26 4.81 0 2.04-.59 3.88-1.77 5.52-1.18 1.64-2.94 2.77-5.28 3.39l7.41 12.56h-7.19zm-9.76-16.73h5.19c1.69 0 2.94-.41 3.77-1.22.83-.81 1.24-1.94 1.24-3.39 0-1.42-.41-2.52-1.24-3.31-.83-.78-2.09-1.18-3.77-1.18h-5.19v9.1zM242.38 42.08l-10.47 20.19v10.78h-6.21V62.27l-10.52-20.19h7.01l6.66 14.15 6.61-14.15h6.92zM271.82 56.32c-.78 1.45-2.01 2.62-3.68 3.51-1.67.89-3.78 1.33-6.32 1.33h-5.19v11.89h-6.21V42.08h11.4c2.4 0 4.44.41 6.12 1.24 1.69.83 2.95 1.97 3.79 3.42.84 1.45 1.26 3.09 1.26 4.93 0 1.65-.39 3.21-1.17 4.65zm-6.46-1.35c.83-.78 1.24-1.89 1.24-3.31 0-3.02-1.69-4.53-5.06-4.53h-4.93v9.01h4.93c1.72.01 2.99-.39 3.82-1.17zM302.9 42.08v5.01h-8.25v25.96h-6.21V47.09h-8.25v-5.01h22.71zM318.25 71.32c-2.43-1.36-4.35-3.25-5.77-5.66s-2.13-5.14-2.13-8.19c0-3.02.71-5.73 2.13-8.14s3.34-4.3 5.77-5.66c2.43-1.36 5.09-2.04 7.99-2.04 2.93 0 5.6.68 8.01 2.04 2.41 1.36 4.32 3.25 5.72 5.66 1.4 2.41 2.11 5.12 2.11 8.14 0 3.05-.7 5.78-2.11 8.19-1.41 2.41-3.32 4.3-5.75 5.66-2.43 1.36-5.09 2.04-7.99 2.04-2.89 0-5.55-.68-7.98-2.04zm12.92-4.77c1.42-.84 2.53-2.05 3.33-3.62.8-1.57 1.2-3.39 1.2-5.46s-.4-3.88-1.2-5.44c-.8-1.55-1.91-2.74-3.33-3.57-1.42-.83-3.06-1.24-4.93-1.24-1.86 0-3.51.41-4.95 1.24-1.44.83-2.55 2.02-3.35 3.57-.8 1.55-1.2 3.37-1.2 5.44 0 2.07.4 3.89 1.2 5.46.8 1.57 1.91 2.77 3.35 3.62 1.43.84 3.08 1.26 4.95 1.26 1.86.01 3.51-.42 4.93-1.26zM371.41 69.78h10.78v3.27h-14.81v-30.8h4.02v27.53zM394.92 42.25v30.81h-4.02V42.25h4.02zM412.33 71.35c-2.36-1.34-4.22-3.21-5.59-5.61-1.37-2.4-2.05-5.1-2.05-8.11s.69-5.71 2.05-8.11c1.37-2.4 3.23-4.27 5.59-5.61 2.36-1.34 4.96-2.01 7.82-2.01 2.89 0 5.51.67 7.87 2.01 2.36 1.34 4.21 3.2 5.57 5.59 1.35 2.39 2.03 5.1 2.03 8.13 0 3.04-.68 5.75-2.03 8.13-1.36 2.39-3.21 4.25-5.57 5.59-2.36 1.34-4.98 2.01-7.87 2.01-2.85 0-5.46-.67-7.82-2.01zm13.64-2.98c1.72-1 3.08-2.43 4.07-4.29.99-1.86 1.48-4.01 1.48-6.45 0-2.48-.49-4.63-1.48-6.48-.99-1.84-2.34-3.26-4.04-4.27-1.71-1-3.65-1.5-5.83-1.5s-4.13.5-5.83 1.5c-1.71 1-3.06 2.42-4.04 4.27-.99 1.84-1.48 4-1.48 6.48 0 2.45.49 4.6 1.48 6.45.99 1.86 2.34 3.29 4.07 4.29 1.72 1 3.66 1.5 5.81 1.5 2.13 0 4.06-.5 5.79-1.5zM469.57 73.05h-4.02l-16.18-24.53v24.53h-4.02V42.2h4.02l16.18 24.49V42.2h4.02v30.85z"/></g></g></switch></svg>