<svg version="1.1" id="Layer_1" xmlns="http://www.w3.org/2000/svg" x="0" y="0" viewBox="0 0 250 250" style="enable-background:new 0 0 250 250" xml:space="preserve"><style>.st0{fill:#FFF}</style><switch><g><path class="st0" d="M131.11 31.24V39c44.71 3.14 80.02 40.38 80.02 85.89 0 38.27-24.97 70.69-59.49 81.91l1.76-7.34c30.03-11.47 51.42-40.57 51.42-74.58 0-41.95-32.54-76.42-73.7-79.56v7.76c36.68 3.08 65.54 33.62 65.94 71l-34.18 12.51-12.25 41.27-1.12 4.68-20.63-13.75v-18.65l24.96-12.78v-24.74l32.67-8.81-2.02-7.47-38.39 10.35v25.94l-21.15 10.83-19.47-9.27v-25.76L66.14 96.39l-2.27 7.4 33.86 10.38v24.92l23.4 11.14v18.54l-20.62 13.39-1.43-4.85-13.74-40.85-32.4-12.04c.24-37.53 29.16-68.24 65.95-71.33v-7.76c-41.16 3.14-73.7 37.61-73.7 79.56 0 34.41 21.9 63.77 52.48 74.96l2.2 7.43c-35.3-10.76-60.99-43.57-60.99-82.4 0-45.51 35.31-82.76 80.02-85.89v-7.76c-48.92 3.16-87.76 43.95-87.76 93.65 0 51.76 42.11 93.87 93.87 93.87 51.76 0 93.87-42.11 93.87-93.87 0-49.7-38.84-90.48-87.77-93.64zm38.08 111.29 12.65-4.63c-3.04 13.33-10.64 24.92-21.08 33.04l8.43-28.41zm-11.68 39.81c17.27-9.81 29.72-27.15 32.8-47.54l6.36-2.33c-2.68 25.57-18.73 47.15-41.03 57.64l1.87-7.77zm-78.33-39.91 9.41 27.99c-9.98-7.99-17.27-19.19-20.31-32.04l10.9 4.05zm-25.82-9.59 6.42 2.39c3.19 20.21 15.56 37.39 32.71 47.13l2.36 7.98c-22.45-10.36-38.67-31.9-41.49-57.5zm89.78 76.26a86.68 86.68 0 0 1-18.14 1.93c-5.62 0-11.11-.56-16.43-1.58l-5.94-20.1.31.47 22.04-14.31 22.61 15.07-4.45 18.52z"/><path class="st0" d="m67.93 91.68 7.75 2.09c9.3-14.72 25.01-24.96 43.21-26.86v-7.8c-21.75 2.01-40.47 14.6-50.96 32.57zM175.07 94.98l7.7-2.08c-10.35-18.62-29.42-31.73-51.66-33.79v7.8c18.7 1.96 34.77 12.71 43.96 28.07zM125 24.04c-1.3 0-2.59.05-3.87.12v43.02h7.74V24.16c-1.28-.07-2.57-.12-3.87-.12zM128.88 69.18h-7.76l-3.88 6.72 3.88 6.72h7.76l3.88-6.72z"/><g><path class="st0" d="M125 232.1c-59.06 0-107.1-48.05-107.1-107.1C17.9 65.94 65.94 17.9 125 17.9S232.1 65.94 232.1 125c0 59.06-48.04 107.1-107.1 107.1zm0-206.46c-54.79 0-99.36 44.57-99.36 99.36s44.57 99.36 99.36 99.36 99.36-44.57 99.36-99.36S179.79 25.64 125 25.64z"/></g></g></switch></svg>